<svg width="24" height="24" viewBox="0 0 24 24" fill="none" xmlns="http://www.w3.org/2000/svg">
<path d="M10.5999 5.63C10.3347 5.67774 10.0993 5.82888 9.94555 6.05017C9.79177 6.27147 9.7322 6.54478 9.77994 6.81C9.82768 7.07522 9.97882 7.31061 10.2001 7.46439C10.4214 7.61817 10.6947 7.67774 10.9599 7.63C11.2903 7.57293 11.6247 7.54283 11.9599 7.54C13.5512 7.54 15.0774 8.17214 16.2026 9.29736C17.3278 10.4226 17.9599 11.9487 17.9599 13.54C17.9571 13.8752 17.927 14.2097 17.8699 14.54C17.8232 14.7998 17.8811 15.0675 18.0309 15.2848C18.1808 15.5021 18.4105 15.6514 18.6699 15.7H18.8499C19.0867 15.7039 19.3172 15.6236 19.5003 15.4734C19.6835 15.3232 19.8073 15.113 19.8499 14.88C19.9428 14.4257 19.993 13.9637 19.9999 13.5C19.9954 11.7198 19.3971 9.99193 18.2999 8.59L19.2099 7.69C19.3982 7.5017 19.504 7.2463 19.504 6.98C19.504 6.7137 19.3982 6.4583 19.2099 6.27C19.0216 6.0817 18.7662 5.97591 18.4999 5.97591C18.2336 5.97591 17.9782 6.0817 17.7899 6.27L16.8899 7.18C15.4908 6.09417 13.771 5.50329 11.9999 5.5C11.5302 5.4991 11.0615 5.54263 10.5999 5.63V5.63ZM9.99994 4.5H13.9999C14.2652 4.5 14.5195 4.39464 14.707 4.20711C14.8946 4.01957 14.9999 3.76522 14.9999 3.5C14.9999 3.23478 14.8946 2.98043 14.707 2.79289C14.5195 2.60536 14.2652 2.5 13.9999 2.5H9.99994C9.73472 2.5 9.48037 2.60536 9.29283 2.79289C9.1053 2.98043 8.99994 3.23478 8.99994 3.5C8.99994 3.76522 9.1053 4.01957 9.29283 4.20711C9.48037 4.39464 9.73472 4.5 9.99994 4.5V4.5ZM13.4899 13.58C13.4899 13.58 13.4899 13.53 13.4899 13.5C13.4899 13.47 13.4899 13.45 13.4899 13.42L14.8299 12.09C14.9232 11.9968 14.9971 11.8861 15.0476 11.7642C15.0981 11.6424 15.124 11.5119 15.124 11.38C15.124 11.2481 15.0981 11.1176 15.0476 10.9958C14.9971 10.8739 14.9232 10.7632 14.8299 10.67C14.7367 10.5768 14.626 10.5028 14.5042 10.4523C14.3824 10.4019 14.2518 10.3759 14.1199 10.3759C13.9881 10.3759 13.8575 10.4019 13.7357 10.4523C13.6139 10.5028 13.5032 10.5768 13.4099 10.67L12.0799 12H11.9199L5.70994 5.79C5.52164 5.6017 5.26624 5.49591 4.99994 5.49591C4.73364 5.49591 4.47824 5.6017 4.28994 5.79C4.10164 5.9783 3.99585 6.2337 3.99585 6.5C3.99585 6.7663 4.10164 7.0217 4.28994 7.21L4.76994 7.69L5.67994 8.6C4.49341 10.1396 3.908 12.0585 4.03309 13.9983C4.15818 15.938 4.98521 17.7658 6.35965 19.1403C7.7341 20.5147 9.56195 21.3418 11.5017 21.4669C13.4414 21.5919 15.3603 21.0065 16.8999 19.82L18.2899 21.21C18.3829 21.3037 18.4935 21.3781 18.6154 21.4289C18.7372 21.4797 18.8679 21.5058 18.9999 21.5058C19.132 21.5058 19.2627 21.4797 19.3845 21.4289C19.5064 21.3781 19.617 21.3037 19.7099 21.21C19.8037 21.117 19.8781 21.0064 19.9288 20.8846C19.9796 20.7627 20.0057 20.632 20.0057 20.5C20.0057 20.368 19.9796 20.2373 19.9288 20.1154C19.8781 19.9936 19.8037 19.883 19.7099 19.79L13.4899 13.58ZM11.9999 19.5C10.8948 19.5031 9.81028 19.2008 8.86599 18.6266C7.92171 18.0525 7.15436 17.2286 6.64857 16.246C6.14279 15.2634 5.91821 14.1602 5.99962 13.058C6.08103 11.9559 6.46527 10.8976 7.10994 10L10.5099 13.39C10.5099 13.39 10.5099 13.44 10.5099 13.47C10.506 13.6687 10.5415 13.8661 10.6145 14.0509C10.6874 14.2357 10.7964 14.4042 10.935 14.5466C11.0737 14.6889 11.2392 14.8023 11.422 14.8801C11.6048 14.958 11.8013 14.9987 11.9999 15H12.0799L15.4699 18.4C14.4551 19.1172 13.2426 19.5015 11.9999 19.5V19.5Z" fill="black"/>
</svg>
