<svg width="23" height="24" viewBox="0 0 23 24" fill="none" xmlns="http://www.w3.org/2000/svg">
<path d="M19.1667 9H10.5417C9.48312 9 8.625 9.89543 8.625 11V20C8.625 21.1046 9.48312 22 10.5417 22H19.1667C20.2252 22 21.0833 21.1046 21.0833 20V11C21.0833 9.89543 20.2252 9 19.1667 9Z" stroke="#6AB7FF" stroke-width="2" stroke-linecap="round" stroke-linejoin="round"/>
<path d="M4.79175 15H3.83341C3.32508 15 2.83757 14.7893 2.47813 14.4142C2.11868 14.0391 1.91675 13.5304 1.91675 13V4C1.91675 3.46957 2.11868 2.96086 2.47813 2.58579C2.83757 2.21071 3.32508 2 3.83341 2H12.4584C12.9667 2 13.4543 2.21071 13.8137 2.58579C14.1731 2.96086 14.3751 3.46957 14.3751 4V5" stroke="#6AB7FF" stroke-width="2" stroke-linecap="round" stroke-linejoin="round"/>
</svg>
