<svg width="128" height="39" viewBox="0 0 128 39" fill="black" xmlns="http://www.w3.org/2000/svg">
<path d="M1 29.88C0.447717 29.88 0 29.4323 0 28.88V1.63C0 1.07772 0.447715 0.63 1 0.63H4.805C5.35728 0.63 5.805 1.07772 5.805 1.63V28.88C5.805 29.4323 5.35729 29.88 4.805 29.88H1Z" fill="black"/>
<path d="M20.5766 30.285C14.3216 30.285 10.0016 25.785 10.0016 19.53C10.0016 13.275 14.3216 8.82 20.5766 8.82C23.8509 8.82 26.5805 10.1272 28.4066 12.2524C28.7545 12.6573 28.6599 13.2622 28.238 13.5892L25.7456 15.5216C25.3215 15.8503 24.7214 15.7759 24.3177 15.4224C23.5522 14.7519 22.418 14.13 20.7116 14.13C17.6066 14.13 15.4916 16.425 15.4916 19.53C15.4916 22.635 17.6066 24.93 20.7116 24.93C22.4324 24.93 23.546 24.3987 24.318 23.7346C24.7262 23.3833 25.3276 23.2967 25.7579 23.6206L28.2252 25.4781C28.6535 25.8005 28.7554 26.4075 28.4092 26.8169C26.5831 28.9765 23.8524 30.285 20.5766 30.285Z" fill="black"/>
<path d="M42.1998 30.33C35.9448 30.33 31.5348 25.695 31.5348 19.53C31.5348 13.275 35.9448 8.775 42.1998 8.775C48.4998 8.775 52.8648 13.275 52.8648 19.53C52.8648 25.695 48.4998 30.33 42.1998 30.33ZM42.1998 24.93C45.3048 24.93 47.3298 22.635 47.3298 19.53C47.3298 16.425 45.3048 14.13 42.1998 14.13C39.1398 14.13 37.0698 16.425 37.0698 19.53C37.0698 22.635 39.1398 24.93 42.1998 24.93Z" fill="black"/>
<path d="M58.041 29.88C57.4887 29.88 57.041 29.4323 57.041 28.88V10.18C57.041 9.62772 57.4887 9.18 58.041 9.18H61.666C62.2183 9.18 62.666 9.62772 62.666 10.18V11.16C64.241 9.45 66.446 8.865 68.471 8.865C72.206 8.865 76.526 10.89 76.526 17.235V28.88C76.526 29.4323 76.0783 29.88 75.526 29.88H71.901C71.3487 29.88 70.901 29.4323 70.901 28.88V18.09C70.901 14.445 68.336 13.59 66.761 13.59C65.141 13.59 62.666 14.445 62.666 18.09V28.88C62.666 29.4323 62.2183 29.88 61.666 29.88H58.041Z" fill="black"/>
<path d="M84.5796 6.12C83.0496 6.12 81.4746 4.95 81.4746 2.97C81.4746 1.035 83.0496 0 84.5796 0C86.0646 0 87.6846 1.035 87.6846 2.97C87.6846 4.95 86.0646 6.12 84.5796 6.12ZM82.7446 29.88C82.1923 29.88 81.7446 29.4323 81.7446 28.88V10.18C81.7446 9.62772 82.1923 9.18 82.7446 9.18H86.4124C86.9656 9.18 87.4136 9.62904 87.4124 10.1822L87.3718 28.8822C87.3706 29.4336 86.9232 29.88 86.3718 29.88H82.7446Z" fill="black"/>
<path d="M94.9867 29.88C94.4344 29.88 93.9867 29.4323 93.9867 28.88V13.455H92.2867C91.7344 13.455 91.2867 13.0073 91.2867 12.455V10.18C91.2867 9.62772 91.7344 9.18 92.2867 9.18H93.9867V7.335C93.9867 2.97 96.1917 0.63 100.557 0.63H103.787C104.339 0.63 104.787 1.07772 104.787 1.63V3.995C104.787 4.54728 104.339 4.995 103.787 4.995H102.312C100.557 4.995 99.6117 5.895 99.6117 7.65V9.18H103.292C103.844 9.18 104.292 9.62772 104.292 10.18V12.455C104.292 13.0073 103.844 13.455 103.292 13.455H99.6117V28.88C99.6117 29.4323 99.164 29.88 98.6117 29.88H94.9867Z" fill="black"/>
<path d="M112.902 38.16C112.195 38.16 111.712 37.4477 111.972 36.7912L114.714 29.88L107.107 10.5462C106.849 9.89006 107.332 9.18 108.037 9.18H111.693C112.104 9.18 112.473 9.43133 112.624 9.81365L117.459 22.095L122.382 9.80805C122.534 9.42869 122.902 9.18 123.311 9.18H126.966C127.672 9.18 128.156 9.89283 127.895 10.5494L117.17 37.5294C117.018 37.9101 116.65 38.16 116.241 38.16H112.902Z" fill="black"/>
</svg>
