<svg width="25" height="24" viewBox="0 0 25 24" fill="none" xmlns="http://www.w3.org/2000/svg">
<path d="M14.1789 18.938C14.0454 18.938 13.9432 18.9011 13.8722 18.8272C13.8012 18.7534 13.7657 18.6497 13.7657 18.5162V16.3094C13.7657 16.1731 13.8012 16.0694 13.8722 15.9984C13.946 15.9274 14.0497 15.8919 14.1832 15.8919H15.2355C15.5791 15.8919 15.8433 15.9799 16.0279 16.156C16.2153 16.3321 16.309 16.575 16.309 16.8845C16.309 17.1913 16.2153 17.4341 16.0279 17.613C15.8433 17.7891 15.5791 17.8772 15.2355 17.8772H14.5922V18.5162C14.5922 18.6497 14.5567 18.7534 14.4856 18.8272C14.4175 18.9011 14.3152 18.938 14.1789 18.938ZM14.5922 17.2424H15.0863C15.2284 17.2424 15.3363 17.2126 15.4101 17.1529C15.484 17.0933 15.5209 17.0038 15.5209 16.8845C15.5209 16.7624 15.484 16.6729 15.4101 16.6161C15.3363 16.5565 15.2284 16.5267 15.0863 16.5267H14.5922V17.2424ZM17.0873 18.8954C16.951 18.8954 16.8459 18.8585 16.7721 18.7846C16.6982 18.7108 16.6613 18.6043 16.6613 18.4651V16.3222C16.6613 16.183 16.6982 16.0765 16.7721 16.0027C16.8459 15.9288 16.951 15.8919 17.0873 15.8919H17.9266C18.4521 15.8919 18.8582 16.0225 19.1451 16.2838C19.4348 16.5451 19.5796 16.9144 19.5796 17.3915C19.5796 17.6301 19.5427 17.8431 19.4688 18.0305C19.395 18.2152 19.2871 18.3728 19.1451 18.5034C19.0031 18.6312 18.8298 18.7292 18.6253 18.7974C18.4208 18.8627 18.1879 18.8954 17.9266 18.8954H17.0873ZM17.4878 18.2223H17.8755C18.0203 18.2223 18.1453 18.2052 18.2504 18.1711C18.3555 18.1371 18.4435 18.0859 18.5145 18.0178C18.5855 17.9496 18.6367 17.8644 18.6679 17.7622C18.702 17.6571 18.719 17.5335 18.719 17.3915C18.719 17.1075 18.6494 16.8987 18.5103 16.7652C18.3711 16.6318 18.1595 16.565 17.8755 16.565H17.4878V18.2223ZM20.4488 18.938C20.3153 18.938 20.2116 18.9011 20.1378 18.8272C20.0668 18.7534 20.0313 18.6469 20.0313 18.5077V16.3222C20.0313 16.183 20.0682 16.0765 20.142 16.0027C20.2159 15.9288 20.321 15.8919 20.4573 15.8919H21.8674C21.9754 15.8919 22.0563 15.9189 22.1103 15.9728C22.1642 16.0268 22.1912 16.1049 22.1912 16.2072C22.1912 16.3122 22.1642 16.3918 22.1103 16.4457C22.0563 16.4997 21.9754 16.5267 21.8674 16.5267H20.8578V17.089H21.7737C21.8788 17.089 21.9583 17.116 22.0123 17.17C22.0663 17.2239 22.0932 17.302 22.0932 17.4043C22.0932 17.5065 22.0663 17.5861 22.0123 17.6429C21.9583 17.6968 21.8788 17.7238 21.7737 17.7238H20.8578V18.5077C20.8578 18.7946 20.7214 18.938 20.4488 18.938Z" fill="#2C3E50"/>
<path d="M8.64001 10.4103H17.0152" stroke="#2C3E50" stroke-width="0.93331" stroke-linecap="round"/>
<path d="M8.61926 13.4215H16.9945" stroke="#2C3E50" stroke-width="0.93331" stroke-linecap="round"/>
<path d="M8.61899 16.4569H11.9621" stroke="#2C3E50" stroke-width="0.93331" stroke-linecap="round"/>
<path d="M15.287 3.12268V4.58009C15.287 5.83714 15.287 6.46566 15.6775 6.85617C16.068 7.24669 16.6965 7.24669 17.9536 7.24669H19.615" stroke="#2C3E50" stroke-width="0.93331"/>
<path d="M19.434 13.9096V8.21494C19.434 7.66219 19.434 7.38581 19.3299 7.13802C19.2258 6.89023 19.0283 6.69683 18.6335 6.31003L16.3124 4.03635C15.9286 3.66039 15.7367 3.47241 15.4945 3.37354C15.2523 3.27466 14.9836 3.27466 14.4464 3.27466H9.18787C7.93082 3.27466 7.3023 3.27466 6.91179 3.66517C6.52127 4.05569 6.52127 4.68421 6.52127 5.94126V18.0582C6.52127 19.3153 6.52127 19.9438 6.91179 20.3343C7.3023 20.7248 7.93082 20.7248 9.18787 20.7248H12.9777L16.4795 20.7248" stroke="#2C3E50" stroke-width="0.93331" stroke-linecap="round"/>
</svg>
