<svg width="18" height="18" viewBox="0 0 18 18" fill="none" xmlns="http://www.w3.org/2000/svg">
<path d="M9.8883 13.9538C9.78818 13.9538 9.71149 13.9261 9.65824 13.8708C9.60498 13.8154 9.57836 13.7376 9.57836 13.6375V11.9823C9.57836 11.8801 9.60498 11.8023 9.65824 11.7491C9.71362 11.6958 9.79138 11.6692 9.89149 11.6692H10.6807C10.9385 11.6692 11.1366 11.7352 11.2751 11.8673C11.4156 11.9994 11.4859 12.1815 11.4859 12.4137C11.4859 12.6438 11.4156 12.8259 11.2751 12.9601C11.1366 13.0922 10.9385 13.1582 10.6807 13.1582H10.1982V13.6375C10.1982 13.7376 10.1716 13.8154 10.1184 13.8708C10.0672 13.9261 9.99055 13.9538 9.8883 13.9538ZM10.1982 12.6821H10.5689C10.6754 12.6821 10.7564 12.6597 10.8117 12.615C10.8671 12.5703 10.8948 12.5032 10.8948 12.4137C10.8948 12.3221 10.8671 12.255 10.8117 12.2124C10.7564 12.1677 10.6754 12.1453 10.5689 12.1453H10.1982V12.6821ZM12.0697 13.9219C11.9674 13.9219 11.8886 13.8942 11.8332 13.8388C11.7778 13.7834 11.7502 13.7035 11.7502 13.5992V11.9919C11.7502 11.8875 11.7778 11.8077 11.8332 11.7523C11.8886 11.6969 11.9674 11.6692 12.0697 11.6692H12.6992C13.0932 11.6692 13.3979 11.7672 13.613 11.9632C13.8303 12.1591 13.9389 12.4361 13.9389 12.7939C13.9389 12.9729 13.9112 13.1326 13.8558 13.2732C13.8005 13.4117 13.7195 13.5299 13.613 13.6279C13.5065 13.7238 13.3766 13.7973 13.2232 13.8484C13.0698 13.8974 12.8951 13.9219 12.6992 13.9219H12.0697ZM12.37 13.417H12.6608C12.7694 13.417 12.8632 13.4042 12.942 13.3787C13.0208 13.3531 13.0868 13.3148 13.1401 13.2636C13.1934 13.2125 13.2317 13.1486 13.2551 13.0719C13.2807 12.9931 13.2935 12.9004 13.2935 12.7939C13.2935 12.5809 13.2413 12.4244 13.1369 12.3242C13.0325 12.2241 12.8738 12.1741 12.6608 12.1741H12.37V13.417ZM14.5908 13.9538C14.4907 13.9538 14.4129 13.9261 14.3576 13.8708C14.3043 13.8154 14.2777 13.7355 14.2777 13.6311V11.9919C14.2777 11.8875 14.3054 11.8077 14.3608 11.7523C14.4161 11.6969 14.495 11.6692 14.5972 11.6692H15.6548C15.7358 11.6692 15.7965 11.6894 15.837 11.7299C15.8774 11.7704 15.8977 11.829 15.8977 11.9056C15.8977 11.9845 15.8774 12.0441 15.837 12.0846C15.7965 12.1251 15.7358 12.1453 15.6548 12.1453H14.8976V12.5671H15.5845C15.6634 12.5671 15.723 12.5873 15.7635 12.6278C15.804 12.6683 15.8242 12.7268 15.8242 12.8035C15.8242 12.8802 15.804 12.9399 15.7635 12.9825C15.723 13.0229 15.6634 13.0432 15.5845 13.0432H14.8976V13.6311C14.8976 13.8463 14.7953 13.9538 14.5908 13.9538Z" fill="#2C3E50"/>
<path d="M5.73401 7.80786H12.0156" stroke="#2C3E50" stroke-width="0.7" stroke-linecap="round"/>
<path d="M5.71844 10.0664H12" stroke="#2C3E50" stroke-width="0.7" stroke-linecap="round"/>
<path d="M5.71826 12.343H8.22567" stroke="#2C3E50" stroke-width="0.7" stroke-linecap="round"/>
<path d="M10.7194 2.34204V3.43513C10.7194 4.37793 10.7194 4.84934 11.0123 5.14223C11.3051 5.43512 11.7766 5.43512 12.7194 5.43512H13.9654" stroke="#2C3E50" stroke-width="0.7"/>
<path d="M13.8297 10.4324V6.16136C13.8297 5.74678 13.8297 5.5395 13.7516 5.35365C13.6735 5.1678 13.5254 5.02275 13.2293 4.73264L11.4884 3.02734C11.2006 2.74536 11.0567 2.60438 10.875 2.53021C10.6933 2.45605 10.4918 2.45605 10.0889 2.45605H6.1449C5.20209 2.45605 4.73068 2.45605 4.43779 2.74895C4.1449 3.04184 4.1449 3.51325 4.1449 4.45605V13.544C4.1449 14.4868 4.1449 14.9582 4.43779 15.2511C4.73068 15.544 5.20209 15.544 6.1449 15.544H8.9873L11.6137 15.544" stroke="#2C3E50" stroke-width="0.7" stroke-linecap="round"/>
</svg>
