<svg width="33" height="33" viewBox="0 0 33 33" fill="none" xmlns="http://www.w3.org/2000/svg">
<path d="M18.5694 25.2537C18.3914 25.2537 18.2551 25.2045 18.1604 25.106C18.0657 25.0076 18.0184 24.8693 18.0184 24.6914V21.749C18.0184 21.5672 18.0657 21.429 18.1604 21.3343C18.2589 21.2397 18.3971 21.1923 18.5751 21.1923H19.9781C20.4363 21.1923 20.7885 21.3097 21.0346 21.5445C21.2845 21.7793 21.4095 22.1031 21.4095 22.5158C21.4095 22.9248 21.2845 23.2486 21.0346 23.4872C20.7885 23.7219 20.4363 23.8393 19.9781 23.8393H19.1204V24.6914C19.1204 24.8693 19.073 25.0076 18.9784 25.106C18.8875 25.2045 18.7512 25.2537 18.5694 25.2537ZM19.1204 22.993H19.7793C19.9686 22.993 20.1125 22.9532 20.211 22.8737C20.3094 22.7942 20.3587 22.6749 20.3587 22.5158C20.3587 22.353 20.3094 22.2337 20.211 22.158C20.1125 22.0785 19.9686 22.0387 19.7793 22.0387H19.1204V22.993ZM22.4472 25.1969C22.2654 25.1969 22.1253 25.1477 22.0269 25.0492C21.9284 24.9508 21.8792 24.8088 21.8792 24.6232V21.766C21.8792 21.5805 21.9284 21.4385 22.0269 21.34C22.1253 21.2416 22.2654 21.1923 22.4472 21.1923H23.5662C24.2668 21.1923 24.8083 21.3665 25.1908 21.7149C25.577 22.0633 25.7701 22.5556 25.7701 23.1918C25.7701 23.5099 25.7209 23.7939 25.6225 24.0438C25.524 24.29 25.3801 24.5001 25.1908 24.6743C25.0014 24.8447 24.7704 24.9754 24.4978 25.0663C24.2251 25.1534 23.9146 25.1969 23.5662 25.1969H22.4472ZM22.9811 24.2994H23.498C23.6912 24.2994 23.8578 24.2767 23.9979 24.2313C24.138 24.1858 24.2554 24.1177 24.3501 24.0268C24.4448 23.9359 24.5129 23.8223 24.5546 23.686C24.6 23.5458 24.6227 23.3811 24.6227 23.1918C24.6227 22.8131 24.53 22.5348 24.3444 22.3568C24.1588 22.1788 23.8767 22.0898 23.498 22.0898H22.9811V24.2994ZM26.929 25.2537C26.751 25.2537 26.6128 25.2045 26.5143 25.106C26.4197 25.0076 26.3723 24.8656 26.3723 24.68V21.766C26.3723 21.5805 26.4216 21.4385 26.52 21.34C26.6185 21.2416 26.7586 21.1923 26.9404 21.1923H28.8205C28.9644 21.1923 29.0723 21.2283 29.1443 21.3003C29.2162 21.3722 29.2522 21.4764 29.2522 21.6127C29.2522 21.7528 29.2162 21.8588 29.1443 21.9308C29.0723 22.0027 28.9644 22.0387 28.8205 22.0387H27.4743V22.7885H28.6955C28.8357 22.7885 28.9417 22.8245 29.0136 22.8964C29.0856 22.9684 29.1216 23.0725 29.1216 23.2088C29.1216 23.3451 29.0856 23.4512 29.0136 23.5269C28.9417 23.5989 28.8357 23.6348 28.6955 23.6348H27.4743V24.68C27.4743 25.0625 27.2925 25.2537 26.929 25.2537Z" fill="#2C3E50"/>
<path d="M11.1844 13.8835H22.3511" stroke="#2C3E50" stroke-width="1.24438" stroke-linecap="round"/>
<path d="M11.1567 17.8984H22.3234" stroke="#2C3E50" stroke-width="1.24438" stroke-linecap="round"/>
<path d="M11.1563 21.9454H15.6137" stroke="#2C3E50" stroke-width="1.24438" stroke-linecap="round"/>
<path d="M20.0468 4.16699V6.11015C20.0468 7.78618 20.0468 8.62419 20.5675 9.14486C21.0882 9.66553 21.9262 9.66553 23.6022 9.66553H25.8174" stroke="#2C3E50" stroke-width="1.24438"/>
<path d="M25.5761 18.5491V10.9565C25.5761 10.2195 25.5761 9.85103 25.4372 9.52065C25.2984 9.19027 25.0351 8.93241 24.5087 8.41669L21.414 5.38519C20.9023 4.88393 20.6464 4.6333 20.3235 4.50146C20.0005 4.36963 19.6423 4.36963 18.926 4.36963H11.9148C10.2388 4.36963 9.40081 4.36963 8.88014 4.8903C8.35947 5.41097 8.35947 6.24899 8.35947 7.92501V24.0806C8.35947 25.7566 8.35947 26.5946 8.88014 27.1153C9.40081 27.636 10.2388 27.636 11.9148 27.636H16.9678L21.6368 27.636" stroke="#2C3E50" stroke-width="1.24438" stroke-linecap="round"/>
</svg>
