<svg width="18" height="18" viewBox="0 0 18 18" fill="none" xmlns="http://www.w3.org/2000/svg">
<path d="M2.36523 6.51936V11.113C2.36523 12.9986 2.36523 13.9414 2.95102 14.5272C3.53681 15.113 4.47962 15.113 6.36524 15.113H11.6348C13.5204 15.113 14.4632 15.113 15.049 14.5272C15.6348 13.9414 15.6348 12.9986 15.6348 11.113V6.51936M2.36523 6.51936C2.36523 5.60046 2.36523 5.14102 2.51335 4.77788C2.71651 4.27975 3.11179 3.88447 3.60992 3.68131C3.97305 3.5332 4.4325 3.5332 5.3514 3.5332H12.6486C13.5675 3.5332 14.027 3.5332 14.3901 3.68131C14.8882 3.88447 15.2835 4.27975 15.4867 4.77788C15.6348 5.14102 15.6348 5.60046 15.6348 6.51936M2.36523 6.51936H15.6348" stroke="#2C3E50" stroke-width="0.8"/>
<path d="M5 2.41797V4.63016" stroke="#2C3E50" stroke-width="0.8" stroke-linecap="round"/>
<path d="M13 2.42773V4.63992" stroke="#2C3E50" stroke-width="0.8" stroke-linecap="round"/>
<path d="M5.5001 9.14961C5.72101 9.14961 5.9001 8.97052 5.9001 8.74961C5.9001 8.5287 5.72101 8.34961 5.5001 8.34961C5.27918 8.34961 5.1001 8.5287 5.1001 8.74961C5.1001 8.97052 5.27918 9.14961 5.5001 9.14961Z" fill="#2C3E50" stroke="#2C3E50" stroke-width="0.7"/>
<path d="M9.0001 9.14961C9.22101 9.14961 9.4001 8.97052 9.4001 8.74961C9.4001 8.5287 9.22101 8.34961 9.0001 8.34961C8.77918 8.34961 8.6001 8.5287 8.6001 8.74961C8.6001 8.97052 8.77918 9.14961 9.0001 9.14961Z" fill="#2C3E50" stroke="#2C3E50" stroke-width="0.7"/>
<path d="M12.5001 9.14961C12.721 9.14961 12.9001 8.97052 12.9001 8.74961C12.9001 8.5287 12.721 8.34961 12.5001 8.34961C12.2792 8.34961 12.1001 8.5287 12.1001 8.74961C12.1001 8.97052 12.2792 9.14961 12.5001 9.14961Z" fill="#2C3E50" stroke="#2C3E50" stroke-width="0.7"/>
<path d="M5.5001 12.6496C5.72101 12.6496 5.9001 12.4705 5.9001 12.2496C5.9001 12.0287 5.72101 11.8496 5.5001 11.8496C5.27918 11.8496 5.1001 12.0287 5.1001 12.2496C5.1001 12.4705 5.27918 12.6496 5.5001 12.6496Z" fill="#2C3E50" stroke="#2C3E50" stroke-width="0.7"/>
<path d="M9.0001 12.6496C9.22101 12.6496 9.4001 12.4705 9.4001 12.2496C9.4001 12.0287 9.22101 11.8496 9.0001 11.8496C8.77918 11.8496 8.6001 12.0287 8.6001 12.2496C8.6001 12.4705 8.77918 12.6496 9.0001 12.6496Z" fill="#2C3E50" stroke="#2C3E50" stroke-width="0.7"/>
<path d="M12.5001 12.6496C12.721 12.6496 12.9001 12.4705 12.9001 12.2496C12.9001 12.0287 12.721 11.8496 12.5001 11.8496C12.2792 11.8496 12.1001 12.0287 12.1001 12.2496C12.1001 12.4705 12.2792 12.6496 12.5001 12.6496Z" fill="#2C3E50" stroke="#2C3E50" stroke-width="0.7"/>
</svg>
