<svg width="33" height="33" viewBox="0 0 33 33" fill="none" xmlns="http://www.w3.org/2000/svg">
<path d="M4.87378 11.5937V19.7597C4.87378 23.1117 4.87378 24.7877 5.91512 25.8291C6.95647 26.8704 8.63249 26.8704 11.9845 26.8704H21.3522C24.7042 26.8704 26.3802 26.8704 27.4216 25.8291C28.4629 24.7877 28.4629 23.1117 28.4629 19.7597V11.5937M4.87378 11.5937C4.87378 9.96012 4.87378 9.14336 5.13707 8.49782C5.49824 7.6123 6.20092 6.90962 7.08643 6.54845C7.73198 6.28516 8.54874 6.28516 10.1823 6.28516H23.1544C24.7879 6.28516 25.6047 6.28516 26.2503 6.54845C27.1358 6.90962 27.8384 7.6123 28.1996 8.49782C28.4629 9.14336 28.4629 9.96012 28.4629 11.5937M4.87378 11.5937H28.4629" stroke="#2C3E50" stroke-width="1.42215"/>
<path d="M9.55762 4.30078V8.23337" stroke="#2C3E50" stroke-width="1.42215" stroke-linecap="round"/>
<path d="M23.7793 4.31836V8.25094" stroke="#2C3E50" stroke-width="1.42215" stroke-linecap="round"/>
<path d="M10.4464 16.2698C10.8391 16.2698 11.1575 15.9514 11.1575 15.5587C11.1575 15.166 10.8391 14.8477 10.4464 14.8477C10.0537 14.8477 9.73535 15.166 9.73535 15.5587C9.73535 15.9514 10.0537 16.2698 10.4464 16.2698Z" fill="#2C3E50" stroke="#2C3E50" stroke-width="1.24438"/>
<path d="M16.6686 16.2698C17.0613 16.2698 17.3797 15.9514 17.3797 15.5587C17.3797 15.166 17.0613 14.8477 16.6686 14.8477C16.2759 14.8477 15.9575 15.166 15.9575 15.5587C15.9575 15.9514 16.2759 16.2698 16.6686 16.2698Z" fill="#2C3E50" stroke="#2C3E50" stroke-width="1.24438"/>
<path d="M22.8905 16.2698C23.2832 16.2698 23.6016 15.9514 23.6016 15.5587C23.6016 15.166 23.2832 14.8477 22.8905 14.8477C22.4978 14.8477 22.1794 15.166 22.1794 15.5587C22.1794 15.9514 22.4978 16.2698 22.8905 16.2698Z" fill="#2C3E50" stroke="#2C3E50" stroke-width="1.24438"/>
<path d="M10.4464 22.4905C10.8391 22.4905 11.1575 22.1722 11.1575 21.7794C11.1575 21.3867 10.8391 21.0684 10.4464 21.0684C10.0537 21.0684 9.73535 21.3867 9.73535 21.7794C9.73535 22.1722 10.0537 22.4905 10.4464 22.4905Z" fill="#2C3E50" stroke="#2C3E50" stroke-width="1.24438"/>
<path d="M16.6686 22.4905C17.0613 22.4905 17.3797 22.1722 17.3797 21.7794C17.3797 21.3867 17.0613 21.0684 16.6686 21.0684C16.2759 21.0684 15.9575 21.3867 15.9575 21.7794C15.9575 22.1722 16.2759 22.4905 16.6686 22.4905Z" fill="#2C3E50" stroke="#2C3E50" stroke-width="1.24438"/>
<path d="M22.8905 22.4905C23.2832 22.4905 23.6016 22.1722 23.6016 21.7794C23.6016 21.3867 23.2832 21.0684 22.8905 21.0684C22.4978 21.0684 22.1794 21.3867 22.1794 21.7794C22.1794 22.1722 22.4978 22.4905 22.8905 22.4905Z" fill="#2C3E50" stroke="#2C3E50" stroke-width="1.24438"/>
</svg>
