<svg width="24" height="24" viewBox="0 0 24 24" fill="none" xmlns="http://www.w3.org/2000/svg">
<path d="M3.15283 8.6924V14.8171C3.15283 17.3312 3.15283 18.5882 3.93385 19.3692C4.71488 20.1503 5.97193 20.1503 8.48603 20.1503H15.5119C18.026 20.1503 19.2831 20.1503 20.0641 19.3692C20.8451 18.5882 20.8451 17.3312 20.8451 14.8171V8.6924M3.15283 8.6924C3.15283 7.46723 3.15283 6.85465 3.3503 6.37048C3.62118 5.70632 4.14821 5.1793 4.81236 4.90841C5.29653 4.71094 5.90911 4.71094 7.13428 4.71094H16.8637C18.0888 4.71094 18.7014 4.71094 19.1856 4.90841C19.8497 5.1793 20.3768 5.70632 20.6476 6.37048C20.8451 6.85465 20.8451 7.46723 20.8451 8.6924M3.15283 8.6924H20.8451" stroke="#2C3E50" stroke-width="1.06664"/>
<path d="M6.66577 3.22266V6.17217" stroke="#2C3E50" stroke-width="1.06664" stroke-linecap="round"/>
<path d="M17.332 3.23633V6.18584" stroke="#2C3E50" stroke-width="1.06664" stroke-linecap="round"/>
<path d="M7.33239 12.1995C7.62694 12.1995 7.86571 11.9607 7.86571 11.6661C7.86571 11.3716 7.62694 11.1328 7.33239 11.1328C7.03785 11.1328 6.79907 11.3716 6.79907 11.6661C6.79907 11.9607 7.03785 12.1995 7.33239 12.1995Z" fill="#2C3E50" stroke="#2C3E50" stroke-width="0.93331"/>
<path d="M11.9989 12.1995C12.2934 12.1995 12.5322 11.9607 12.5322 11.6661C12.5322 11.3716 12.2934 11.1328 11.9989 11.1328C11.7044 11.1328 11.4656 11.3716 11.4656 11.6661C11.4656 11.9607 11.7044 12.1995 11.9989 12.1995Z" fill="#2C3E50" stroke="#2C3E50" stroke-width="0.93331"/>
<path d="M16.6654 12.1995C16.9599 12.1995 17.1987 11.9607 17.1987 11.6661C17.1987 11.3716 16.9599 11.1328 16.6654 11.1328C16.3709 11.1328 16.1321 11.3716 16.1321 11.6661C16.1321 11.9607 16.3709 12.1995 16.6654 12.1995Z" fill="#2C3E50" stroke="#2C3E50" stroke-width="0.93331"/>
<path d="M7.33239 16.8655C7.62694 16.8655 7.86571 16.6267 7.86571 16.3321C7.86571 16.0376 7.62694 15.7988 7.33239 15.7988C7.03785 15.7988 6.79907 16.0376 6.79907 16.3321C6.79907 16.6267 7.03785 16.8655 7.33239 16.8655Z" fill="#2C3E50" stroke="#2C3E50" stroke-width="0.93331"/>
<path d="M11.9989 16.8655C12.2934 16.8655 12.5322 16.6267 12.5322 16.3321C12.5322 16.0376 12.2934 15.7988 11.9989 15.7988C11.7044 15.7988 11.4656 16.0376 11.4656 16.3321C11.4656 16.6267 11.7044 16.8655 11.9989 16.8655Z" fill="#2C3E50" stroke="#2C3E50" stroke-width="0.93331"/>
<path d="M16.6654 16.8655C16.9599 16.8655 17.1987 16.6267 17.1987 16.3321C17.1987 16.0376 16.9599 15.7988 16.6654 15.7988C16.3709 15.7988 16.1321 16.0376 16.1321 16.3321C16.1321 16.6267 16.3709 16.8655 16.6654 16.8655Z" fill="#2C3E50" stroke="#2C3E50" stroke-width="0.93331"/>
</svg>
