<svg width="24" height="24" viewBox="0 0 24 24" fill="none" xmlns="http://www.w3.org/2000/svg">
<path d="M3.15273 8.69252V14.8172C3.15273 17.3313 3.15273 18.5883 3.93375 19.3693C4.71478 20.1504 5.97183 20.1504 8.48593 20.1504H15.5118C18.0259 20.1504 19.283 20.1504 20.064 19.3693C20.845 18.5883 20.845 17.3313 20.845 14.8172V8.69252M3.15273 8.69252V8.69252C3.15273 7.46735 3.15273 6.85477 3.3502 6.3706C3.62108 5.70644 4.14811 5.17942 4.81226 4.90853C5.29643 4.71106 5.90901 4.71106 7.13418 4.71106H16.8636C18.0887 4.71106 18.7013 4.71106 19.1855 4.90853C19.8496 5.17942 20.3767 5.70644 20.6475 6.3706C20.845 6.85477 20.845 7.46735 20.845 8.69252V8.69252M3.15273 8.69252H20.845" stroke="#2C3E50" stroke-width="1.06664"/>
<path d="M6.66568 3.22363V6.17314" stroke="#2C3E50" stroke-width="1.06664" stroke-linecap="round"/>
<path d="M17.3321 3.23633V6.18584" stroke="#2C3E50" stroke-width="1.06664" stroke-linecap="round"/>
<circle cx="7.33233" cy="11.6664" r="0.53332" fill="#2C3E50" stroke="#2C3E50" stroke-width="0.93331"/>
<circle cx="11.9989" cy="11.6664" r="0.53332" fill="#2C3E50" stroke="#2C3E50" stroke-width="0.93331"/>
<circle cx="16.6654" cy="11.6664" r="0.53332" fill="#2C3E50" stroke="#2C3E50" stroke-width="0.93331"/>
<circle cx="7.33233" cy="16.333" r="0.53332" fill="#2C3E50" stroke="#2C3E50" stroke-width="0.93331"/>
<circle cx="11.9989" cy="16.333" r="0.53332" fill="#2C3E50" stroke="#2C3E50" stroke-width="0.93331"/>
<circle cx="16.6654" cy="16.333" r="0.53332" fill="#2C3E50" stroke="#2C3E50" stroke-width="0.93331"/>
</svg>
