<svg width="24" height="24" viewBox="0 0 24 24" fill="none" xmlns="http://www.w3.org/2000/svg">
<path d="M17.5 13.2596C18.6582 13.2691 19.7837 12.8763 20.6844 12.1482C21.5852 11.4201 22.2052 10.4019 22.4386 9.2675C22.6721 8.13307 22.5044 6.95278 21.9643 5.92821C21.4243 4.90365 20.5452 4.09835 19.4774 3.64986C18.4096 3.20136 17.2191 3.13749 16.1094 3.46916C14.9997 3.80082 14.0396 4.50744 13.393 5.46833C12.7464 6.42923 12.4534 7.58481 12.5641 8.7377C12.6748 9.8906 13.1824 10.9693 14 11.7896C14.9281 12.7207 16.1855 13.2488 17.5 13.2596V13.2596ZM19.62 10.3796C19.1818 10.8143 18.6201 11.1033 18.0117 11.2071C17.4032 11.3109 16.7775 11.2244 16.22 10.9596L20.22 6.9596C20.4869 7.52151 20.5726 8.1525 20.4651 8.76522C20.3576 9.37795 20.0623 9.9421 19.62 10.3796ZM15.38 6.1396C15.9421 5.57683 16.7046 5.2603 17.5 5.2596C17.9436 5.26373 18.3808 5.36619 18.78 5.5596L14.78 9.5596C14.5131 8.99769 14.4274 8.3667 14.5349 7.75397C14.6424 7.14125 14.9377 6.57709 15.38 6.1396V6.1396ZM20.5 14.2596C20.2348 14.2596 19.9804 14.365 19.7929 14.5525C19.6054 14.74 19.5 14.9944 19.5 15.2596V19.2596C19.5 19.5248 19.3946 19.7792 19.2071 19.9667C19.0196 20.1542 18.7652 20.2596 18.5 20.2596H4.5C4.23478 20.2596 3.98043 20.1542 3.79289 19.9667C3.60536 19.7792 3.5 19.5248 3.5 19.2596V9.6696L9.38 15.5496C9.93962 16.1099 10.6981 16.4263 11.49 16.4296C11.8927 16.4306 12.2915 16.3506 12.6625 16.1943C13.0336 16.0379 13.3695 15.8085 13.65 15.5196C13.8302 15.3331 13.931 15.0839 13.931 14.8246C13.931 14.5653 13.8302 14.3161 13.65 14.1296C13.5569 14.0344 13.4456 13.9587 13.3229 13.907C13.2001 13.8553 13.0682 13.8287 12.935 13.8287C12.8018 13.8287 12.6699 13.8553 12.5471 13.907C12.4244 13.9587 12.3131 14.0344 12.22 14.1296C12.0331 14.3128 11.7818 14.4155 11.52 14.4155C11.2582 14.4155 11.0069 14.3128 10.82 14.1296L4.91 8.2596H9.5C9.76522 8.2596 10.0196 8.15424 10.2071 7.9667C10.3946 7.77917 10.5 7.52481 10.5 7.2596C10.5 6.99438 10.3946 6.74003 10.2071 6.55249C10.0196 6.36495 9.76522 6.2596 9.5 6.2596H4.5C3.70435 6.2596 2.94129 6.57567 2.37868 7.13828C1.81607 7.70089 1.5 8.46395 1.5 9.2596V19.2596C1.5 20.0552 1.81607 20.8183 2.37868 21.3809C2.94129 21.9435 3.70435 22.2596 4.5 22.2596H18.5C19.2956 22.2596 20.0587 21.9435 20.6213 21.3809C21.1839 20.8183 21.5 20.0552 21.5 19.2596V15.2596C21.5 14.9944 21.3946 14.74 21.2071 14.5525C21.0196 14.365 20.7652 14.2596 20.5 14.2596Z" fill="black"/>
</svg>
