<svg width="24" height="24" viewBox="0 0 24 24" fill="none" xmlns="http://www.w3.org/2000/svg">
<path d="M21 15.2598C20.7348 15.2598 20.4804 15.3651 20.2929 15.5527C20.1054 15.7402 20 15.9945 20 16.2598V19.2598C20 19.525 19.8946 19.7793 19.7071 19.9669C19.5196 20.1544 19.2652 20.2598 19 20.2598H5C4.73478 20.2598 4.48043 20.1544 4.29289 19.9669C4.10536 19.7793 4 19.525 4 19.2598V9.66977L9.88 15.5598C10.4388 16.114 11.193 16.4265 11.98 16.4298C12.4792 16.4306 12.9707 16.3069 13.41 16.0698C13.5258 16.007 13.628 15.9219 13.7109 15.8195C13.7937 15.717 13.8555 15.5993 13.8926 15.4729C13.9298 15.3465 13.9416 15.214 13.9274 15.0831C13.9133 14.9521 13.8734 14.8253 13.81 14.7098C13.7472 14.594 13.6621 14.4917 13.5597 14.4089C13.4573 14.3261 13.3395 14.2643 13.2131 14.2271C13.0868 14.19 12.9543 14.1781 12.8233 14.1923C12.6924 14.2065 12.5655 14.2464 12.45 14.3098C12.2645 14.4048 12.0539 14.4395 11.8478 14.409C11.6416 14.3786 11.4501 14.2844 11.3 14.1398L5.41 8.25977H12C12.2652 8.25977 12.5196 8.15441 12.7071 7.96687C12.8946 7.77934 13 7.52498 13 7.25977C13 6.99455 12.8946 6.7402 12.7071 6.55266C12.5196 6.36512 12.2652 6.25977 12 6.25977H5C4.20435 6.25977 3.44129 6.57584 2.87868 7.13845C2.31607 7.70105 2 8.46412 2 9.25977V19.2598C2 20.0554 2.31607 20.8185 2.87868 21.3811C3.44129 21.9437 4.20435 22.2598 5 22.2598H19C19.7956 22.2598 20.5587 21.9437 21.1213 21.3811C21.6839 20.8185 22 20.0554 22 19.2598V16.2598C22 15.9945 21.8946 15.7402 21.7071 15.5527C21.5196 15.3651 21.2652 15.2598 21 15.2598V15.2598ZM21 3.25977H16C15.7348 3.25977 15.4804 3.36512 15.2929 3.55266C15.1054 3.7402 15 3.99455 15 4.25977V12.2598C15.0003 12.4422 15.0505 12.6211 15.1452 12.777C15.2398 12.933 15.3753 13.06 15.537 13.1445C15.6988 13.229 15.8805 13.2676 16.0625 13.2562C16.2446 13.2448 16.4201 13.1838 16.57 13.0798L18.5 11.7898L20.41 13.0698C20.5833 13.1905 20.7888 13.2566 21 13.2598C21.1415 13.2591 21.2812 13.2284 21.41 13.1698C21.5854 13.0909 21.7344 12.9631 21.8391 12.8017C21.9437 12.6403 21.9996 12.4521 22 12.2598V4.25977C22 3.99455 21.8946 3.7402 21.7071 3.55266C21.5196 3.36512 21.2652 3.25977 21 3.25977ZM20 10.3798L19.06 9.74977C18.8946 9.63799 18.6996 9.57826 18.5 9.57826C18.3004 9.57826 18.1054 9.63799 17.94 9.74977L17 10.3798V5.25977H20V10.3798Z" fill="black"/>
</svg>
