<svg width="24" height="24" viewBox="0 0 24 24" fill="none" xmlns="http://www.w3.org/2000/svg">
<path d="M13.64 9.74043L13.35 11.4704C13.3019 11.7609 13.3374 12.059 13.4525 12.3299C13.5677 12.6009 13.7575 12.8335 14 13.0004C14.2268 13.1657 14.4965 13.2621 14.7767 13.2781C15.057 13.294 15.3359 13.2289 15.58 13.0904L17 12.2804L18.44 13.0704C18.68 13.2076 18.954 13.2739 19.2301 13.2615C19.5063 13.2491 19.7733 13.1586 20 13.0004C20.2354 12.8325 20.4191 12.6022 20.5305 12.3353C20.6418 12.0685 20.6763 11.7758 20.63 11.4904L20.34 9.76043L21.54 8.54043C21.738 8.33916 21.8769 8.08731 21.9415 7.81243C22.006 7.53755 21.9937 7.25021 21.906 6.98183C21.8183 6.71345 21.6584 6.47436 21.444 6.29069C21.2295 6.10703 20.9687 5.98586 20.69 5.94043L19.07 5.70043L18.34 4.15043C18.2195 3.89135 18.0274 3.67209 17.7865 3.51846C17.5456 3.36482 17.2657 3.2832 16.98 3.2832C16.6943 3.2832 16.4144 3.36482 16.1735 3.51846C15.9326 3.67209 15.7405 3.89135 15.62 4.15043L14.89 5.70043L13.27 5.94043C12.9913 5.98586 12.7305 6.10703 12.516 6.29069C12.3016 6.47436 12.1417 6.71345 12.054 6.98183C11.9663 7.25021 11.954 7.53755 12.0185 7.81243C12.0831 8.08731 12.222 8.33916 12.42 8.54043L13.64 9.74043ZM15.47 7.61043C15.7152 7.57327 15.9475 7.47627 16.1463 7.32803C16.3451 7.17978 16.5044 6.98484 16.61 6.76043L17 5.93043L17.39 6.76043C17.4972 6.98467 17.6567 7.17986 17.8551 7.32953C18.0535 7.47921 18.285 7.57898 18.53 7.62043L19.53 7.76043L18.8 8.50043C18.6308 8.67586 18.5047 8.88827 18.4318 9.12086C18.3589 9.35344 18.3412 9.5998 18.38 9.84043L18.54 10.8404L17.75 10.4104C17.5298 10.2878 17.282 10.2235 17.03 10.2235C16.778 10.2235 16.5302 10.2878 16.31 10.4104L15.52 10.8404L15.68 9.84043C15.7196 9.60133 15.7022 9.35626 15.6292 9.12516C15.5562 8.89405 15.4297 8.68344 15.26 8.51043L14.53 7.76043L15.47 7.61043ZM21 15.2604C20.7348 15.2604 20.4804 15.3658 20.2929 15.5533C20.1054 15.7409 20 15.9952 20 16.2604V19.2604C20 19.5256 19.8946 19.78 19.7071 19.9675C19.5196 20.1551 19.2652 20.2604 19 20.2604H5C4.73478 20.2604 4.48043 20.1551 4.29289 19.9675C4.10536 19.78 4 19.5256 4 19.2604V9.67043L9.88 15.5504C10.1539 15.8294 10.4808 16.0509 10.8414 16.202C11.2019 16.3531 11.589 16.4307 11.98 16.4304H12.25C12.5137 16.4075 12.7577 16.281 12.9282 16.0785C13.0988 15.8761 13.1822 15.6142 13.16 15.3504C13.1487 15.2189 13.1115 15.0909 13.0505 14.9739C12.9895 14.8568 12.9059 14.753 12.8045 14.6684C12.7032 14.5838 12.5861 14.5201 12.4601 14.481C12.334 14.4418 12.2014 14.4281 12.07 14.4404C11.9288 14.4549 11.7862 14.4372 11.6529 14.3887C11.5195 14.3402 11.3989 14.2622 11.3 14.1604L5.41 8.26043H9C9.26522 8.26043 9.51957 8.15507 9.70711 7.96754C9.89464 7.78 10 7.52565 10 7.26043C10 6.99522 9.89464 6.74086 9.70711 6.55332C9.51957 6.36579 9.26522 6.26043 9 6.26043H5C4.20435 6.26043 3.44129 6.5765 2.87868 7.13911C2.31607 7.70172 2 8.46478 2 9.26043V19.2604C2 20.0561 2.31607 20.8191 2.87868 21.3818C3.44129 21.9444 4.20435 22.2604 5 22.2604H19C19.7956 22.2604 20.5587 21.9444 21.1213 21.3818C21.6839 20.8191 22 20.0561 22 19.2604V16.2604C22 15.9952 21.8946 15.7409 21.7071 15.5533C21.5196 15.3658 21.2652 15.2604 21 15.2604V15.2604Z" fill="black"/>
</svg>
