<svg width="24" height="24" viewBox="0 0 24 24" fill="none" xmlns="http://www.w3.org/2000/svg">
<path d="M5.99994 7.49017C6.26516 7.49017 6.51951 7.38482 6.70705 7.19728C6.89459 7.00974 6.99994 6.75539 6.99994 6.49017V5.90017L9.87994 8.78017C10.4424 9.34198 11.2049 9.65753 11.9999 9.65753C12.7949 9.65753 13.5574 9.34198 14.1199 8.78017L18.7099 4.19017C18.8962 4.00281 19.0007 3.74936 19.0007 3.48517C19.0007 3.22099 18.8962 2.96754 18.7099 2.78017C18.617 2.68644 18.5064 2.61205 18.3845 2.56128C18.2627 2.51051 18.132 2.48438 17.9999 2.48438C17.8679 2.48438 17.7372 2.51051 17.6154 2.56128C17.4935 2.61205 17.3829 2.68644 17.2899 2.78017L12.7099 7.36017C12.617 7.4539 12.5064 7.5283 12.3845 7.57906C12.2627 7.62983 12.132 7.65597 11.9999 7.65597C11.8679 7.65597 11.7372 7.62983 11.6154 7.57906C11.4935 7.5283 11.3829 7.4539 11.2899 7.36017L8.40994 4.49017H8.99994C9.26516 4.49017 9.51951 4.38482 9.70705 4.19728C9.89459 4.00974 9.99994 3.75539 9.99994 3.49017C9.99994 3.22496 9.89459 2.9706 9.70705 2.78307C9.51951 2.59553 9.26516 2.49017 8.99994 2.49017H5.99994C5.80365 2.49033 5.61175 2.54826 5.44815 2.65673C5.28455 2.7652 5.1565 2.91942 5.07994 3.10017C5.02956 3.22416 5.00244 3.35636 4.99994 3.49017V6.49017C4.99994 6.75539 5.1053 7.00974 5.29284 7.19728C5.48037 7.38482 5.73473 7.49017 5.99994 7.49017ZM21.9399 14.8502C19.0924 12.6527 15.5968 11.4608 11.9999 11.4608C8.40304 11.4608 4.90753 12.6527 2.05994 14.8502C1.75958 15.0923 1.51483 15.3963 1.34229 15.7413C1.16974 16.0864 1.07345 16.4646 1.05994 16.8502C1.03383 17.231 1.08997 17.6129 1.22456 17.9701C1.35915 18.3273 1.56903 18.6513 1.83994 18.9202L3.59994 20.7202C4.04968 21.1698 4.64464 21.4448 5.27848 21.4961C5.91233 21.5474 6.54376 21.3716 7.05994 21.0002L7.52994 20.6802C7.84998 20.4736 8.18414 20.2899 8.52994 20.1302C8.95502 19.9425 9.29389 19.6016 9.47917 19.1755C9.66446 18.7493 9.68258 18.2691 9.52994 17.8302L9.43994 17.5902C11.1521 17.1503 12.9477 17.1503 14.6599 17.5902L14.5699 17.8302C14.4173 18.2691 14.4354 18.7493 14.6207 19.1755C14.806 19.6016 15.1449 19.9425 15.5699 20.1302C15.9157 20.2899 16.2499 20.4736 16.5699 20.6802L17.0399 21.0002C17.4863 21.3278 18.0263 21.5031 18.5799 21.5002C19.2992 21.5011 19.9896 21.217 20.4999 20.7102L22.3099 18.8902C22.5634 18.6147 22.7559 18.2888 22.8748 17.9338C22.9937 17.5788 23.0364 17.2028 22.9999 16.8302C22.9764 16.4433 22.8694 16.066 22.6865 15.7243C22.5035 15.3825 22.2489 15.0843 21.9399 14.8502V14.8502ZM20.7999 17.4902L18.9999 19.3002C18.8905 19.4142 18.7449 19.4865 18.5879 19.5047C18.431 19.523 18.2726 19.486 18.1399 19.4002C17.9499 19.2602 17.7599 19.1302 17.5499 19.0002C17.1978 18.7775 16.8339 18.5739 16.4599 18.3902L16.8599 17.3002C16.95 17.0509 16.9374 16.776 16.8249 16.536C16.7124 16.296 16.5092 16.1104 16.2599 16.0202C13.5148 15.0205 10.5051 15.0205 7.75994 16.0202C7.51071 16.1104 7.3075 16.296 7.195 16.536C7.08249 16.776 7.06988 17.0509 7.15994 17.3002L7.55994 18.4002C7.18085 18.5765 6.81344 18.7769 6.45994 19.0002L5.87994 19.4002C5.74697 19.4956 5.58329 19.5382 5.42068 19.5197C5.25807 19.5012 5.10812 19.423 4.99994 19.3002L3.19994 17.4902C3.13508 17.4264 3.0839 17.35 3.04951 17.2658C3.01513 17.1815 2.99826 17.0911 2.99994 17.0002C3.00825 16.8975 3.03735 16.7975 3.08549 16.7064C3.13362 16.6153 3.19978 16.5349 3.27994 16.4702C5.77921 14.5451 8.84524 13.5012 11.9999 13.5012C15.1546 13.5012 18.2207 14.5451 20.7199 16.4702C20.8001 16.5349 20.8663 16.6153 20.9144 16.7064C20.9625 16.7975 20.9916 16.8975 20.9999 17.0002C21.0016 17.0911 20.9848 17.1815 20.9504 17.2658C20.916 17.35 20.8648 17.4264 20.7999 17.4902V17.4902Z" fill="black"/>
</svg>
