<svg width="24" height="24" viewBox="0 0 24 24" fill="none" xmlns="http://www.w3.org/2000/svg">
<path d="M20.47 8.99938C20.6677 8.99938 20.8611 8.94073 21.0255 8.83085C21.19 8.72097 21.3182 8.56479 21.3938 8.38206C21.4695 8.19934 21.4893 7.99827 21.4507 7.80429C21.4122 7.61031 21.3169 7.43213 21.1771 7.29227C21.0372 7.15242 20.859 7.05718 20.6651 7.01859C20.4711 6.98001 20.27 6.99981 20.0873 7.0755C19.9046 7.15119 19.7484 7.27936 19.6385 7.44381C19.5286 7.60826 19.47 7.8016 19.47 7.99938C19.47 8.2646 19.5753 8.51895 19.7629 8.70649C19.9504 8.89402 20.2047 8.99938 20.47 8.99938ZM17.47 8.99938C17.6677 8.99938 17.8611 8.94073 18.0255 8.83085C18.19 8.72097 18.3182 8.56479 18.3938 8.38206C18.4695 8.19934 18.4893 7.99827 18.4507 7.80429C18.4122 7.61031 18.3169 7.43213 18.1771 7.29227C18.0372 7.15242 17.859 7.05718 17.6651 7.01859C17.4711 6.98001 17.27 6.99981 17.0873 7.0755C16.9046 7.15119 16.7484 7.27936 16.6385 7.44381C16.5286 7.60826 16.47 7.8016 16.47 7.99938C16.47 8.2646 16.5753 8.51895 16.7629 8.70649C16.9504 8.89402 17.2047 8.99938 17.47 8.99938ZM14.47 8.99938C14.6677 8.99938 14.8611 8.94073 15.0255 8.83085C15.19 8.72097 15.3182 8.56479 15.3938 8.38206C15.4695 8.19934 15.4893 7.99827 15.4507 7.80429C15.4122 7.61031 15.3169 7.43213 15.1771 7.29227C15.0372 7.15242 14.859 7.05718 14.6651 7.01859C14.4711 6.98001 14.27 6.99981 14.0873 7.0755C13.9046 7.15119 13.7484 7.27936 13.6385 7.44381C13.5286 7.60826 13.47 7.8016 13.47 7.99938C13.47 8.1307 13.4958 8.26074 13.5461 8.38206C13.5963 8.50339 13.67 8.61363 13.7629 8.70649C13.8557 8.79934 13.966 8.873 14.0873 8.92326C14.2086 8.97351 14.3386 8.99938 14.47 8.99938V8.99938ZM18.91 12.9994C18.69 12.9994 18.46 12.9294 18.24 12.8794C17.7944 12.7812 17.3566 12.6509 16.93 12.4894C16.4661 12.3206 15.9561 12.3294 15.4983 12.514C15.0404 12.6986 14.667 13.046 14.45 13.4894L14.23 13.9394C13.2545 13.3952 12.3564 12.7225 11.56 11.9394C10.7806 11.1433 10.1083 10.2491 9.55996 9.27938L9.99996 8.99938C10.4433 8.7823 10.7907 8.40891 10.9754 7.95107C11.16 7.49323 11.1687 6.98329 11 6.51938C10.8412 6.0918 10.7109 5.65418 10.61 5.20938C10.56 4.97938 10.52 4.75938 10.49 4.52938C10.3685 3.825 9.99959 3.18712 9.44958 2.73062C8.89958 2.27412 8.20466 2.02899 7.48996 2.03938H4.48996C4.06721 2.03883 3.64911 2.12763 3.26308 2.29996C2.87705 2.4723 2.5318 2.72428 2.24996 3.03938C1.96365 3.36188 1.75024 3.74231 1.62426 4.15475C1.49828 4.56719 1.46271 5.00195 1.51996 5.42938C2.04668 9.61642 3.95234 13.509 6.93636 16.493C9.92038 19.477 13.8129 21.3827 18 21.9094C18.1298 21.9193 18.2602 21.9193 18.39 21.9094C19.1856 21.9094 19.9487 21.5933 20.5113 21.0307C21.0739 20.4681 21.39 19.705 21.39 18.9094V15.9094C21.3796 15.2116 21.1263 14.5393 20.6736 14.0081C20.2209 13.477 19.5973 13.1203 18.91 12.9994V12.9994ZM19.4 18.9994C19.4016 19.1443 19.3717 19.2879 19.3124 19.4202C19.253 19.5524 19.1656 19.6702 19.0562 19.7653C18.9468 19.8604 18.8181 19.9306 18.6788 19.9711C18.5396 20.0115 18.3933 20.0211 18.25 19.9994C14.5161 19.5121 11.0471 17.8075 8.37996 15.1494C5.71496 12.4642 4.01321 8.97282 3.53996 5.21938C3.51824 5.07271 3.5294 4.92305 3.57264 4.78123C3.61588 4.63941 3.69011 4.50898 3.78996 4.39938C3.88256 4.29397 3.99629 4.20922 4.12379 4.15064C4.25128 4.09206 4.38967 4.06097 4.52996 4.05938H7.52996C7.76251 4.05421 7.98959 4.13026 8.17211 4.27445C8.35463 4.41864 8.48117 4.62195 8.52996 4.84938C8.56996 5.12271 8.61996 5.39271 8.67996 5.65938C8.79548 6.18652 8.94922 6.70456 9.13996 7.20938L7.73996 7.85938C7.62026 7.9143 7.51259 7.99233 7.42312 8.08898C7.33366 8.18562 7.26416 8.29899 7.21864 8.42257C7.17311 8.54615 7.15244 8.67751 7.15781 8.8091C7.16319 8.94069 7.1945 9.06992 7.24996 9.18938C8.68916 12.2721 11.1672 14.7502 14.25 16.1894C14.4934 16.2894 14.7665 16.2894 15.01 16.1894C15.2581 16.097 15.4595 15.91 15.57 15.6694L16.2 14.2694C16.7169 14.4543 17.2446 14.6079 17.78 14.7294C18.04 14.7894 18.32 14.8394 18.59 14.8794C18.8155 14.9302 19.0165 15.0576 19.1588 15.2399C19.301 15.4222 19.3756 15.6482 19.37 15.8794L19.4 18.9994Z" fill="black"/>
</svg>
