<svg width="24" height="24" viewBox="0 0 24 24" fill="none" xmlns="http://www.w3.org/2000/svg">
<path d="M19.8501 5.55931L21.6401 3.76931C21.7448 3.67966 21.8298 3.56934 21.8898 3.44528C21.9499 3.32121 21.9836 3.18608 21.9889 3.04836C21.9942 2.91064 21.971 2.77331 21.9207 2.64499C21.8705 2.51666 21.7942 2.40011 21.6968 2.30266C21.5993 2.2052 21.4827 2.12895 21.3544 2.07867C21.2261 2.0284 21.0888 2.00519 20.951 2.01051C20.8133 2.01583 20.6782 2.04956 20.5541 2.10958C20.4301 2.16961 20.3197 2.25463 20.2301 2.35931L18.4401 4.14931L16.6401 2.35931C16.4488 2.19548 16.2027 2.10988 15.951 2.1196C15.6994 2.12932 15.4606 2.23365 15.2825 2.41175C15.1044 2.58984 15.0001 2.82858 14.9904 3.08026C14.9807 3.33193 15.0663 3.57801 15.2301 3.76931L17.0001 5.55931L15.2101 7.35931C15.0239 7.54667 14.9193 7.80012 14.9193 8.06431C14.9193 8.32849 15.0239 8.58195 15.2101 8.76931C15.3975 8.95556 15.6509 9.0601 15.9151 9.0601C16.1793 9.0601 16.4327 8.95556 16.6201 8.76931L18.4401 6.99931L20.2301 8.78931C20.4175 8.97556 20.6709 9.0801 20.9351 9.0801C21.1993 9.0801 21.4527 8.97556 21.6401 8.78931C21.8264 8.60195 21.9309 8.34849 21.9309 8.08431C21.9309 7.82012 21.8264 7.56667 21.6401 7.37931L19.8501 5.55931ZM19.4401 12.9993C19.2201 12.9993 18.9901 12.9293 18.7701 12.8793C18.3246 12.7811 17.8868 12.6508 17.4601 12.4893C16.9962 12.3205 16.4862 12.3293 16.0284 12.5139C15.5706 12.6985 15.1972 13.0459 14.9801 13.4893L14.7601 13.9393C13.7861 13.3975 12.8911 12.7245 12.1001 11.9393C11.3149 11.1483 10.6419 10.2533 10.1001 9.27931L10.5201 8.99931C10.9635 8.78223 11.3109 8.40884 11.4955 7.951C11.6801 7.49316 11.6889 6.98322 11.5201 6.51931C11.3613 6.09173 11.231 5.65411 11.1301 5.20931C11.0801 4.98931 11.0401 4.75931 11.0101 4.52931C10.8887 3.82493 10.5197 3.18705 9.96972 2.73055C9.41972 2.27405 8.7248 2.02892 8.0101 2.03931H5.0101C4.57913 2.03526 4.15235 2.12412 3.75881 2.29984C3.36527 2.47556 3.01421 2.73401 2.72953 3.05759C2.44485 3.38118 2.23324 3.7623 2.10909 4.17502C1.98494 4.58774 1.95118 5.02237 2.0101 5.44931C2.54284 9.63869 4.45613 13.5312 7.44775 16.5119C10.4394 19.4927 14.3388 21.3918 18.5301 21.9093H18.9101C19.6475 21.9104 20.3595 21.6398 20.9101 21.1493C21.2265 20.8664 21.4792 20.5195 21.6516 20.1316C21.8239 19.7438 21.9121 19.3237 21.9101 18.8993V15.8993C21.8979 15.2047 21.6449 14.5359 21.1944 14.007C20.744 13.4781 20.1239 13.1219 19.4401 12.9993V12.9993ZM19.9401 18.9993C19.9399 19.1413 19.9095 19.2816 19.8509 19.4109C19.7923 19.5402 19.7068 19.6556 19.6001 19.7493C19.4884 19.8458 19.3577 19.9179 19.2165 19.9609C19.0753 20.004 18.9267 20.017 18.7801 19.9993C15.035 19.5191 11.5563 17.8058 8.89282 15.1296C6.2293 12.4534 4.53251 8.96665 4.0701 5.21931C4.05419 5.07283 4.06813 4.92464 4.1111 4.7837C4.15407 4.64276 4.22517 4.512 4.3201 4.39931C4.41381 4.29264 4.52916 4.20715 4.65848 4.14853C4.7878 4.0899 4.92812 4.05949 5.0701 4.05931H8.0701C8.30265 4.05413 8.52972 4.13019 8.71224 4.27438C8.89477 4.41857 9.02131 4.62188 9.0701 4.84931C9.1101 5.12264 9.1601 5.39264 9.2201 5.65931C9.33562 6.18645 9.48936 6.70449 9.6801 7.20931L8.2801 7.85931C8.1604 7.91423 8.05272 7.99226 7.96326 8.0889C7.87379 8.18555 7.8043 8.29892 7.75877 8.4225C7.71324 8.54608 7.69257 8.67744 7.69795 8.80903C7.70332 8.94062 7.73464 9.06985 7.7901 9.18931C9.2293 12.2721 11.7073 14.7501 14.7901 16.1893C15.0336 16.2893 15.3066 16.2893 15.5501 16.1893C15.6748 16.1447 15.7894 16.0758 15.8873 15.9865C15.9851 15.8972 16.0643 15.7894 16.1201 15.6693L16.7401 14.2693C17.2571 14.4542 17.7847 14.6078 18.3201 14.7293C18.5868 14.7893 18.8568 14.8393 19.1301 14.8793C19.3575 14.9281 19.5608 15.0546 19.705 15.2372C19.8492 15.4197 19.9253 15.6468 19.9201 15.8793L19.9401 18.9993Z" fill="black"/>
</svg>
