<svg width="24" height="24" viewBox="0 0 24 24" fill="none" xmlns="http://www.w3.org/2000/svg">
<path d="M14.9401 6.55938H18.5201L17.7301 7.35938C17.5438 7.54674 17.4393 7.80019 17.4393 8.06438C17.4393 8.32856 17.5438 8.58202 17.7301 8.76938C17.9175 8.95563 18.1709 9.06017 18.4351 9.06017C18.6993 9.06017 18.9527 8.95563 19.1401 8.76938L21.6401 6.26938C21.8264 6.08202 21.9309 5.82857 21.9309 5.56438C21.9309 5.30019 21.8264 5.04674 21.6401 4.85938L19.1401 2.35938C18.9488 2.19555 18.7027 2.10995 18.451 2.11967C18.1994 2.12939 17.9606 2.23372 17.7825 2.41182C17.6044 2.58991 17.5001 2.82865 17.4904 3.08033C17.4807 3.332 17.5663 3.57808 17.7301 3.76938L18.5201 4.55938H14.9401C14.6749 4.55938 14.4205 4.66474 14.233 4.85227C14.0455 5.03981 13.9401 5.29416 13.9401 5.55938C13.9401 5.8246 14.0455 6.07895 14.233 6.26649C14.4205 6.45402 14.6749 6.55938 14.9401 6.55938V6.55938ZM19.4401 12.9994C19.2201 12.9994 18.9901 12.9294 18.7701 12.8794C18.3246 12.7812 17.8868 12.6509 17.4601 12.4894C16.9962 12.3206 16.4862 12.3294 16.0284 12.514C15.5706 12.6986 15.1972 13.046 14.9801 13.4894L14.7601 13.9394C13.7861 13.3976 12.8911 12.7246 12.1001 11.9394C11.3149 11.1484 10.6419 10.2534 10.1001 9.27938L10.5201 8.99938C10.9635 8.7823 11.3109 8.40891 11.4955 7.95107C11.6801 7.49323 11.6889 6.98329 11.5201 6.51938C11.3613 6.0918 11.231 5.65418 11.1301 5.20938C11.0801 4.98938 11.0401 4.75938 11.0101 4.52938C10.8887 3.825 10.5197 3.18712 9.96972 2.73062C9.41972 2.27412 8.7248 2.02899 8.0101 2.03938H5.0101C4.57913 2.03533 4.15235 2.12419 3.75881 2.29991C3.36527 2.47563 3.01421 2.73408 2.72953 3.05766C2.44485 3.38125 2.23324 3.76237 2.10909 4.17509C1.98494 4.58781 1.95118 5.02244 2.0101 5.44938C2.54284 9.63876 4.45613 13.5313 7.44775 16.512C10.4394 19.4928 14.3388 21.3919 18.5301 21.9094H18.9101C19.6475 21.9105 20.3595 21.6399 20.9101 21.1494C21.2265 20.8664 21.4792 20.5196 21.6516 20.1317C21.8239 19.7438 21.9121 19.3238 21.9101 18.8994V15.8994C21.8979 15.2048 21.6449 14.5359 21.1944 14.007C20.744 13.4782 20.1239 13.122 19.4401 12.9994V12.9994ZM19.9401 18.9994C19.9399 19.1414 19.9095 19.2817 19.8509 19.411C19.7923 19.5403 19.7068 19.6557 19.6001 19.7494C19.4884 19.8459 19.3577 19.9179 19.2165 19.961C19.0753 20.004 18.9267 20.0171 18.7801 19.9994C15.035 19.5192 11.5563 17.8059 8.89282 15.1297C6.2293 12.4535 4.53251 8.96672 4.0701 5.21938C4.05419 5.0729 4.06813 4.92471 4.1111 4.78377C4.15407 4.64283 4.22517 4.51207 4.3201 4.39938C4.41381 4.29271 4.52916 4.20722 4.65848 4.1486C4.7878 4.08997 4.92812 4.05956 5.0701 4.05938H8.0701C8.30265 4.05421 8.52972 4.13026 8.71224 4.27445C8.89477 4.41864 9.02131 4.62195 9.0701 4.84938C9.1101 5.12271 9.1601 5.39271 9.2201 5.65938C9.33562 6.18652 9.48936 6.70456 9.6801 7.20938L8.2801 7.85938C8.1604 7.9143 8.05272 7.99233 7.96326 8.08898C7.87379 8.18562 7.8043 8.29899 7.75877 8.42257C7.71324 8.54615 7.69257 8.67751 7.69795 8.8091C7.70332 8.94069 7.73464 9.06992 7.7901 9.18938C9.2293 12.2721 11.7073 14.7502 14.7901 16.1894C15.0336 16.2894 15.3066 16.2894 15.5501 16.1894C15.6748 16.1448 15.7894 16.0758 15.8873 15.9866C15.9851 15.8973 16.0643 15.7895 16.1201 15.6694L16.7401 14.2694C17.2571 14.4543 17.7847 14.6079 18.3201 14.7294C18.5868 14.7894 18.8568 14.8394 19.1301 14.8794C19.3575 14.9282 19.5608 15.0547 19.705 15.2372C19.8492 15.4198 19.9253 15.6468 19.9201 15.8794L19.9401 18.9994Z" fill="black"/>
</svg>
