<svg width="24" height="24" viewBox="0 0 24 24" fill="none" xmlns="http://www.w3.org/2000/svg">
<path d="M21 11.0002C20.7348 11.0002 20.4804 11.1055 20.2929 11.2931C20.1054 11.4806 20 11.735 20 12.0002V18.0002C20 18.2654 19.8946 18.5198 19.7071 18.7073C19.5196 18.8948 19.2652 19.0002 19 19.0002H5C4.73478 19.0002 4.48043 18.8948 4.29289 18.7073C4.10536 18.5198 4 18.2654 4 18.0002V8.41019L9.88 14.3002C10.4412 14.8568 11.1995 15.1695 11.99 15.1702C12.8004 15.166 13.5764 14.8427 14.15 14.2702L15.87 12.5502C16.0583 12.3619 16.1641 12.1065 16.1641 11.8402C16.1641 11.5739 16.0583 11.3185 15.87 11.1302C15.6817 10.9419 15.4263 10.8361 15.16 10.8361C14.8937 10.8361 14.6383 10.9419 14.45 11.1302L12.7 12.8802C12.5131 13.0634 12.2618 13.166 12 13.166C11.7382 13.166 11.4869 13.0634 11.3 12.8802L5.41 7.00019H13C13.2652 7.00019 13.5196 6.89483 13.7071 6.70729C13.8946 6.51976 14 6.2654 14 6.00019C14 5.73497 13.8946 5.48062 13.7071 5.29308C13.5196 5.10554 13.2652 5.00019 13 5.00019H5C4.20435 5.00019 3.44129 5.31626 2.87868 5.87887C2.31607 6.44147 2 7.20454 2 8.00019V18.0002C2 18.7958 2.31607 19.5589 2.87868 20.1215C3.44129 20.6841 4.20435 21.0002 5 21.0002H19C19.7956 21.0002 20.5587 20.6841 21.1213 20.1215C21.6839 19.5589 22 18.7958 22 18.0002V12.0002C22 11.735 21.8946 11.4806 21.7071 11.2931C21.5196 11.1055 21.2652 11.0002 21 11.0002ZM20.41 6.00019L21.71 4.71019C21.8983 4.52188 22.0041 4.26649 22.0041 4.00019C22.0041 3.73388 21.8983 3.47849 21.71 3.29019C21.5217 3.10188 21.2663 2.99609 21 2.99609C20.7337 2.99609 20.4783 3.10188 20.29 3.29019L19 4.59019L17.71 3.29019C17.6168 3.19695 17.5061 3.12299 17.3842 3.07253C17.2624 3.02207 17.1319 2.99609 17 2.99609C16.7337 2.99609 16.4783 3.10188 16.29 3.29019C16.1017 3.47849 15.9959 3.73388 15.9959 4.00019C15.9959 4.26649 16.1017 4.52188 16.29 4.71019L17.59 6.00019L16.29 7.29019C16.1963 7.38315 16.1219 7.49375 16.0711 7.61561C16.0203 7.73747 15.9942 7.86817 15.9942 8.00019C15.9942 8.1322 16.0203 8.2629 16.0711 8.38476C16.1219 8.50662 16.1963 8.61722 16.29 8.71019C16.383 8.80391 16.4936 8.87831 16.6154 8.92908C16.7373 8.97985 16.868 9.00598 17 9.00598C17.132 9.00598 17.2627 8.97985 17.3846 8.92908C17.5064 8.87831 17.617 8.80391 17.71 8.71019L19 7.41019L20.29 8.71019C20.383 8.80391 20.4936 8.87831 20.6154 8.92908C20.7373 8.97985 20.868 9.00598 21 9.00598C21.132 9.00598 21.2627 8.97985 21.3846 8.92908C21.5064 8.87831 21.617 8.80391 21.71 8.71019C21.8037 8.61722 21.8781 8.50662 21.9289 8.38476C21.9797 8.2629 22.0058 8.1322 22.0058 8.00019C22.0058 7.86817 21.9797 7.73747 21.9289 7.61561C21.8781 7.49375 21.8037 7.38315 21.71 7.29019L20.41 6.00019Z" fill="black"/>
</svg>
