<svg width="24" height="24" viewBox="0 0 24 24" fill="none" xmlns="http://www.w3.org/2000/svg">
<path d="M4.79004 10.5004H2.79004C2.52482 10.5004 2.27047 10.6057 2.08293 10.7933C1.8954 10.9808 1.79004 11.2352 1.79004 11.5004C1.79004 11.7656 1.8954 12.02 2.08293 12.2075C2.27047 12.395 2.52482 12.5004 2.79004 12.5004H4.79004C5.05526 12.5004 5.30961 12.395 5.49715 12.2075C5.68468 12.02 5.79004 11.7656 5.79004 11.5004C5.79004 11.2352 5.68468 10.9808 5.49715 10.7933C5.30961 10.6057 5.05526 10.5004 4.79004 10.5004ZM21.57 7.66038V7.60038C21.2835 7.25017 20.9215 6.96931 20.5111 6.77882C20.1007 6.58832 19.6525 6.49314 19.2 6.50038H11.27C10.5352 6.49378 9.82358 6.7571 9.27004 7.24038V7.24038C8.75304 7.69592 8.41313 8.31909 8.31004 9.00038L7.43004 14.0004C7.35437 14.4322 7.37424 14.8753 7.48827 15.2986C7.6023 15.7219 7.80771 16.115 8.09004 16.4504C8.3709 16.7846 8.72132 17.0535 9.11685 17.2383C9.51237 17.4231 9.94347 17.5194 10.38 17.5204H18.32C19.0333 17.5312 19.727 17.2874 20.2768 16.833C20.8266 16.3785 21.1965 15.7429 21.32 15.0404L22.2 10.0404C22.2693 9.62169 22.249 9.19305 22.1404 8.78278C22.0318 8.37252 21.8374 7.98996 21.57 7.66038V7.66038ZM18.83 8.50038L15.43 11.2604C15.229 11.4224 14.9731 11.5004 14.7159 11.478C14.4587 11.4557 14.2201 11.3347 14.05 11.1404L11.72 8.50038H18.83ZM19.31 14.6704C19.2696 14.9052 19.1466 15.1178 18.9632 15.27C18.7799 15.4221 18.5483 15.5038 18.31 15.5004H10.38C10.2348 15.4992 10.0916 15.4663 9.96036 15.4042C9.82911 15.342 9.71298 15.252 9.62004 15.1404C9.52686 15.0294 9.45893 14.8994 9.42094 14.7596C9.38296 14.6197 9.37582 14.4733 9.40004 14.3304L10.2 9.80038L12.55 12.4604C13.0615 13.0418 13.778 13.4028 14.5496 13.468C15.3212 13.5333 16.0882 13.2976 16.69 12.8104L20.13 10.0004L19.31 14.6704ZM5.79004 6.50038H2.79004C2.52482 6.50038 2.27047 6.60574 2.08293 6.79328C1.8954 6.98081 1.79004 7.23517 1.79004 7.50038C1.79004 7.7656 1.8954 8.01996 2.08293 8.20749C2.27047 8.39503 2.52482 8.50038 2.79004 8.50038H5.79004C6.05526 8.50038 6.30961 8.39503 6.49715 8.20749C6.68468 8.01996 6.79004 7.7656 6.79004 7.50038C6.79004 7.23517 6.68468 6.98081 6.49715 6.79328C6.30961 6.60574 6.05526 6.50038 5.79004 6.50038Z" fill="black"/>
</svg>
