<svg width="24" height="24" viewBox="0 0 24 24" fill="none" xmlns="http://www.w3.org/2000/svg">
<path d="M16 10.5002H8C7.20435 10.5002 6.44129 10.8163 5.87868 11.3789C5.31607 11.9415 5 12.7045 5 13.5002V18.5002C5 19.2958 5.31607 20.0589 5.87868 20.6215C6.44129 21.1841 7.20435 21.5002 8 21.5002H16C16.7956 21.5002 17.5587 21.1841 18.1213 20.6215C18.6839 20.0589 19 19.2958 19 18.5002V13.5002C19 12.7045 18.6839 11.9415 18.1213 11.3789C17.5587 10.8163 16.7956 10.5002 16 10.5002ZM15.58 12.5002L12.7 15.3802C12.5131 15.5634 12.2618 15.666 12 15.666C11.7382 15.666 11.4869 15.5634 11.3 15.3802L8.42 12.5002H15.58ZM17 18.5002C17 18.7654 16.8946 19.0198 16.7071 19.2073C16.5196 19.3948 16.2652 19.5002 16 19.5002H8C7.73478 19.5002 7.48043 19.3948 7.29289 19.2073C7.10536 19.0198 7 18.7654 7 18.5002V13.9102L9.88 16.7802C10.1555 17.0634 10.4851 17.2881 10.8494 17.441C11.2136 17.5939 11.605 17.6719 12 17.6702C12.7954 17.6695 13.5579 17.353 14.12 16.7902L17 13.9102V18.5002ZM9 6.50019H12.59L12.29 6.79018C12.1963 6.88315 12.1219 6.99375 12.0711 7.11561C12.0203 7.23747 11.9942 7.36817 11.9942 7.50019C11.9942 7.6322 12.0203 7.7629 12.0711 7.88476C12.1219 8.00662 12.1963 8.11722 12.29 8.21019C12.383 8.30391 12.4936 8.37831 12.6154 8.42908C12.7373 8.47984 12.868 8.50598 13 8.50598C13.132 8.50598 13.2627 8.47984 13.3846 8.42908C13.5064 8.37831 13.617 8.30391 13.71 8.21019L15.71 6.21019C15.801 6.11508 15.8724 6.00294 15.92 5.88019C16.02 5.63672 16.02 5.36365 15.92 5.12019C15.8724 4.99743 15.801 4.88529 15.71 4.79019L13.71 2.79019C13.5217 2.60188 13.2663 2.49609 13 2.49609C12.7337 2.49609 12.4783 2.60188 12.29 2.79019C12.1017 2.97849 11.9959 3.23388 11.9959 3.50019C11.9959 3.76649 12.1017 4.02188 12.29 4.21019L12.59 4.50019H9C8.73478 4.50019 8.48043 4.60554 8.29289 4.79308C8.10536 4.98062 8 5.23497 8 5.50019C8 5.7654 8.10536 6.01976 8.29289 6.20729C8.48043 6.39483 8.73478 6.50019 9 6.50019V6.50019Z" fill="black"/>
</svg>
