<svg width="24" height="24" viewBox="0 0 24 24" fill="none" xmlns="http://www.w3.org/2000/svg">
<path d="M15.5501 8.99907C15.6746 9.04648 15.8069 9.07022 15.9401 9.06907H19.9401C20.2053 9.06907 20.4597 8.96372 20.6472 8.77618C20.8347 8.58865 20.9401 8.33429 20.9401 8.06907C20.9401 7.80386 20.8347 7.5495 20.6472 7.36197C20.4597 7.17443 20.2053 7.06908 19.9401 7.06908H18.3501L21.6401 3.77907C21.7448 3.68943 21.8298 3.57911 21.8898 3.45504C21.9499 3.33098 21.9836 3.19585 21.9889 3.05813C21.9942 2.92041 21.971 2.78308 21.9207 2.65475C21.8705 2.52643 21.7942 2.40988 21.6968 2.31242C21.5993 2.21497 21.4827 2.13871 21.3544 2.08844C21.2261 2.03816 21.0888 2.01496 20.951 2.02028C20.8133 2.0256 20.6782 2.05933 20.5541 2.11935C20.4301 2.17937 20.3197 2.26439 20.2301 2.36907L16.9401 5.64908V4.05907C16.9401 3.79386 16.8347 3.5395 16.6472 3.35197C16.4597 3.16443 16.2053 3.05907 15.9401 3.05907C15.6749 3.05907 15.4205 3.16443 15.233 3.35197C15.0455 3.5395 14.9401 3.79386 14.9401 4.05907V8.05908C14.939 8.1923 14.9627 8.32457 15.0101 8.44907C15.0593 8.57192 15.1323 8.68378 15.225 8.77819C15.3177 8.8726 15.4282 8.94768 15.5501 8.99907V8.99907ZM19.4401 12.9991C19.2201 12.9991 18.9901 12.9291 18.7701 12.8791C18.3246 12.7809 17.8868 12.6506 17.4601 12.4891C16.9962 12.3203 16.4862 12.3291 16.0284 12.5137C15.5706 12.6983 15.1972 13.0457 14.9801 13.4891L14.7601 13.9391C13.7861 13.3973 12.8911 12.7243 12.1001 11.9391C11.3149 11.1481 10.6419 10.2531 10.1001 9.27907L10.5201 8.99907C10.9635 8.78199 11.3109 8.4086 11.4955 7.95077C11.6801 7.49293 11.6889 6.98299 11.5201 6.51907C11.3613 6.0915 11.231 5.65387 11.1301 5.20907C11.0801 4.98907 11.0401 4.75908 11.0101 4.52908C10.8887 3.82469 10.5197 3.18682 9.96972 2.73031C9.41972 2.27381 8.7248 2.02868 8.0101 2.03907H5.0101C4.57913 2.03503 4.15235 2.12389 3.75881 2.29961C3.36527 2.47532 3.01421 2.73377 2.72953 3.05736C2.44485 3.38094 2.23324 3.76207 2.10909 4.17479C1.98494 4.58751 1.95118 5.02213 2.0101 5.44907C2.54284 9.63846 4.45613 13.531 7.44775 16.5117C10.4394 19.4925 14.3388 21.3916 18.5301 21.9091H18.9101C19.6475 21.9102 20.3595 21.6396 20.9101 21.1491C21.2265 20.8661 21.4792 20.5193 21.6516 20.1314C21.8239 19.7435 21.9121 19.3235 21.9101 18.8991V15.8991C21.8979 15.2045 21.6449 14.5356 21.1944 14.0067C20.744 13.4779 20.1239 13.1217 19.4401 12.9991V12.9991ZM19.9401 18.9991C19.9399 19.1411 19.9095 19.2814 19.8509 19.4107C19.7923 19.54 19.7068 19.6554 19.6001 19.7491C19.4884 19.8455 19.3577 19.9176 19.2165 19.9607C19.0753 20.0037 18.9267 20.0168 18.7801 19.9991C15.035 19.5189 11.5563 17.8056 8.89282 15.1294C6.2293 12.4532 4.53251 8.96641 4.0701 5.21907C4.05419 5.07259 4.06813 4.92441 4.1111 4.78347C4.15407 4.64253 4.22517 4.51176 4.3201 4.39908C4.41381 4.29241 4.52916 4.20692 4.65848 4.14829C4.7878 4.08967 4.92812 4.05925 5.0701 4.05907H8.0701C8.30265 4.0539 8.52972 4.12995 8.71224 4.27415C8.89477 4.41834 9.02131 4.62164 9.0701 4.84907C9.1101 5.12241 9.1601 5.39241 9.2201 5.65907C9.33562 6.18622 9.48936 6.70425 9.6801 7.20907L8.2801 7.85908C8.1604 7.914 8.05272 7.99202 7.96326 8.08867C7.87379 8.18532 7.8043 8.29869 7.75877 8.42227C7.71324 8.54585 7.69257 8.67721 7.69795 8.8088C7.70332 8.94039 7.73464 9.06962 7.7901 9.18907C9.2293 12.2718 11.7073 14.7499 14.7901 16.1891C15.0336 16.2891 15.3066 16.2891 15.5501 16.1891C15.6748 16.1445 15.7894 16.0755 15.8873 15.9863C15.9851 15.897 16.0643 15.7892 16.1201 15.6691L16.7401 14.2691C17.2571 14.454 17.7847 14.6076 18.3201 14.7291C18.5868 14.7891 18.8568 14.8391 19.1301 14.8791C19.3575 14.9279 19.5608 15.0544 19.705 15.2369C19.8492 15.4195 19.9253 15.6465 19.9201 15.8791L19.9401 18.9991Z" fill="black"/>
</svg>
