<svg width="24" height="24" viewBox="0 0 24 24" fill="none" xmlns="http://www.w3.org/2000/svg">
<path d="M21 13.4999C20.7348 13.4999 20.4804 13.6053 20.2929 13.7928C20.1054 13.9804 20 14.2347 20 14.4999V18.4999C20 18.7652 19.8946 19.0195 19.7071 19.207C19.5196 19.3946 19.2652 19.4999 19 19.4999H5C4.73478 19.4999 4.48043 19.3946 4.29289 19.207C4.10536 19.0195 4 18.7652 4 18.4999V8.90994L9.88 14.7899C10.4425 15.3517 11.205 15.6673 12 15.6673C12.795 15.6673 13.5575 15.3517 14.12 14.7899L17.71 11.2099C17.8983 11.0216 18.0041 10.7662 18.0041 10.4999C18.0041 10.2336 17.8983 9.97824 17.71 9.78994C17.5217 9.60164 17.2663 9.49585 17 9.49585C16.7337 9.49585 16.4783 9.60164 16.29 9.78994L12.71 13.3799C12.617 13.4737 12.5064 13.5481 12.3846 13.5988C12.2627 13.6496 12.132 13.6757 12 13.6757C11.868 13.6757 11.7373 13.6496 11.6154 13.5988C11.4936 13.5481 11.383 13.4737 11.29 13.3799L5.41 7.49994H17C17.2652 7.49994 17.5196 7.39458 17.7071 7.20705C17.8946 7.01951 18 6.76516 18 6.49994C18 6.23472 17.8946 5.98037 17.7071 5.79283C17.5196 5.6053 17.2652 5.49994 17 5.49994H5C4.20435 5.49994 3.44129 5.81601 2.87868 6.37862C2.31607 6.94123 2 7.70429 2 8.49994V18.4999C2 19.2956 2.31607 20.0587 2.87868 20.6213C3.44129 21.1839 4.20435 21.4999 5 21.4999H19C19.7956 21.4999 20.5587 21.1839 21.1213 20.6213C21.6839 20.0587 22 19.2956 22 18.4999V14.4999C22 14.2347 21.8946 13.9804 21.7071 13.7928C21.5196 13.6053 21.2652 13.4999 21 13.4999ZM21 4.49994C21.2648 4.49626 21.5184 4.39267 21.71 4.20994L21.83 4.04994C21.8696 3.99889 21.9 3.94137 21.92 3.87994C21.9558 3.82443 21.9828 3.76371 22 3.69994C22.0049 3.63336 22.0049 3.56652 22 3.49994C21.9963 3.23517 21.8927 2.98157 21.71 2.78994C21.617 2.69621 21.5064 2.62182 21.3846 2.57105C21.2627 2.52028 21.132 2.49414 21 2.49414C20.868 2.49414 20.7373 2.52028 20.6154 2.57105C20.4936 2.62182 20.383 2.69621 20.29 2.78994C20.1963 2.8829 20.1219 2.9935 20.0711 3.11536C20.0203 3.23722 19.9942 3.36793 19.9942 3.49994C19.9942 3.63195 20.0203 3.76266 20.0711 3.88452C20.1219 4.00637 20.1963 4.11698 20.29 4.20994C20.4816 4.39267 20.7352 4.49626 21 4.49994ZM21 5.49994C20.7348 5.49994 20.4804 5.6053 20.2929 5.79283C20.1054 5.98037 20 6.23472 20 6.49994V10.4999C20 10.7652 20.1054 11.0195 20.2929 11.207C20.4804 11.3946 20.7348 11.4999 21 11.4999C21.2652 11.4999 21.5196 11.3946 21.7071 11.207C21.8946 11.0195 22 10.7652 22 10.4999V6.49994C22 6.23472 21.8946 5.98037 21.7071 5.79283C21.5196 5.6053 21.2652 5.49994 21 5.49994Z" fill="black"/>
</svg>
