<svg width="24" height="24" viewBox="0 0 24 24" fill="none" xmlns="http://www.w3.org/2000/svg">
<path d="M4.5 9.99978H10C10.7 9.99815 11.3774 9.75176 11.915 9.30328C12.4525 8.8548 12.8162 8.23247 12.9432 7.54405C13.0702 6.85564 12.9525 6.14448 12.6104 5.53373C12.2683 4.92298 11.7234 4.4511 11.07 4.19978C10.694 3.46182 10.0982 2.85876 9.36489 2.47385C8.63154 2.08893 7.79679 1.94115 6.97587 2.0509C6.15495 2.16065 5.38834 2.52252 4.78186 3.08655C4.17537 3.65058 3.75893 4.38897 3.59 5.19978C3.06481 5.42293 2.63176 5.81904 2.36279 6.32231C2.09381 6.82557 2.00511 7.40571 2.1114 7.96636C2.21769 8.52701 2.51258 9.03442 2.94709 9.40432C3.3816 9.77422 3.92957 9.98434 4.5 9.99978V9.99978ZM4.5 6.99978C4.76522 6.99978 5.01957 6.89442 5.20711 6.70689C5.39464 6.51935 5.5 6.265 5.5 5.99978C5.5033 5.52805 5.67324 5.07267 5.9798 4.71411C6.28635 4.35555 6.70978 4.1169 7.17527 4.04031C7.64075 3.96373 8.11832 4.05415 8.52359 4.2956C8.92886 4.53704 9.23574 4.91397 9.39 5.35978C9.44866 5.52976 9.55207 5.68077 9.68934 5.79692C9.82661 5.91307 9.99266 5.99006 10.17 6.01978C10.4014 6.0597 10.6114 6.17976 10.7631 6.35894C10.9149 6.53811 10.9987 6.76498 11 6.99978C11 7.265 10.8946 7.51935 10.7071 7.70689C10.5196 7.89442 10.2652 7.99978 10 7.99978H4.5C4.36739 7.99978 4.24021 7.9471 4.14645 7.85333C4.05268 7.75957 4 7.63239 4 7.49978C4 7.36717 4.05268 7.24 4.14645 7.14623C4.24021 7.05246 4.36739 6.99978 4.5 6.99978V6.99978ZM21 15.9998H20V8.99978C20 8.20413 19.6839 7.44107 19.1213 6.87846C18.5587 6.31585 17.7956 5.99978 17 5.99978H16C15.7348 5.99978 15.4804 6.10514 15.2929 6.29268C15.1054 6.48021 15 6.73457 15 6.99978C15 7.265 15.1054 7.51935 15.2929 7.70689C15.4804 7.89442 15.7348 7.99978 16 7.99978H17C17.2652 7.99978 17.5196 8.10514 17.7071 8.29268C17.8946 8.48021 18 8.73457 18 8.99978V15.9998H6V12.9998C6 12.7346 5.89464 12.4802 5.70711 12.2927C5.51957 12.1051 5.26522 11.9998 5 11.9998C4.73478 11.9998 4.48043 12.1051 4.29289 12.2927C4.10536 12.4802 4 12.7346 4 12.9998V15.9998H3C2.73478 15.9998 2.48043 16.1051 2.29289 16.2927C2.10536 16.4802 2 16.7346 2 16.9998V18.9998C2 19.7954 2.31607 20.5585 2.87868 21.1211C3.44129 21.6837 4.20435 21.9998 5 21.9998H19C19.7956 21.9998 20.5587 21.6837 21.1213 21.1211C21.6839 20.5585 22 19.7954 22 18.9998V16.9998C22 16.7346 21.8946 16.4802 21.7071 16.2927C21.5196 16.1051 21.2652 15.9998 21 15.9998ZM20 18.9998C20 19.265 19.8946 19.5194 19.7071 19.7069C19.5196 19.8944 19.2652 19.9998 19 19.9998H5C4.73478 19.9998 4.48043 19.8944 4.29289 19.7069C4.10536 19.5194 4 19.265 4 18.9998V17.9998H20V18.9998Z" fill="black"/>
</svg>
