<svg width="24" height="24" viewBox="0 0 24 24" fill="none" xmlns="http://www.w3.org/2000/svg">
<path d="M20.5 13.0009C20.2348 13.0009 19.9804 13.1062 19.7929 13.2938C19.6054 13.4813 19.5 13.7357 19.5 14.0009V18.0009C19.5 18.2661 19.3946 18.5204 19.2071 18.708C19.0196 18.8955 18.7652 19.0009 18.5 19.0009H4.5C4.23478 19.0009 3.98043 18.8955 3.79289 18.708C3.60536 18.5204 3.5 18.2661 3.5 18.0009V8.41087L9.38 14.3009C9.94124 14.8575 10.6995 15.1702 11.49 15.1709C11.8903 15.1719 12.2867 15.0928 12.656 14.9382C13.0252 14.7836 13.3598 14.5567 13.64 14.2709L14.53 13.3909C14.6669 13.1978 14.7309 12.9623 14.7106 12.7264C14.6902 12.4906 14.5869 12.2696 14.4188 12.1028C14.2508 11.936 14.0291 11.8342 13.7931 11.8155C13.5571 11.7969 13.3221 11.8625 13.13 12.0009L12.2 12.9109C12.0131 13.0941 11.7618 13.1967 11.5 13.1967C11.2382 13.1967 10.9869 13.0941 10.8 12.9109L4.91 7.00087H9.5C9.76522 7.00087 10.0196 6.89551 10.2071 6.70798C10.3946 6.52044 10.5 6.26609 10.5 6.00087C10.5 5.73565 10.3946 5.4813 10.2071 5.29376C10.0196 5.10623 9.76522 5.00087 9.5 5.00087H4.5C3.70435 5.00087 2.94129 5.31694 2.37868 5.87955C1.81607 6.44216 1.5 7.20522 1.5 8.00087V18.0009C1.5 18.7965 1.81607 19.5596 2.37868 20.1222C2.94129 20.6848 3.70435 21.0009 4.5 21.0009H18.5C19.2956 21.0009 20.0587 20.6848 20.6213 20.1222C21.1839 19.5596 21.5 18.7965 21.5 18.0009V14.0009C21.5 13.7357 21.3946 13.4813 21.2071 13.2938C21.0196 13.1062 20.7652 13.0009 20.5 13.0009ZM21.55 4.00087C21.0433 3.51238 20.3949 3.197 19.6978 3.09998C19.0007 3.00296 18.2908 3.1293 17.67 3.46087C16.9859 3.08463 16.1892 2.96723 15.4256 3.13014C14.6621 3.29306 13.9827 3.72541 13.5117 4.34811C13.0408 4.9708 12.8097 5.74224 12.8608 6.52131C12.9119 7.30038 13.2417 8.03502 13.79 8.59087L17 11.7109C17.1916 11.8936 17.4452 11.9972 17.71 12.0009C17.8416 12.0016 17.9721 11.9764 18.0939 11.9266C18.2157 11.8769 18.3266 11.8036 18.42 11.7109L21.59 8.54087C22.1748 7.9274 22.4977 7.11028 22.4902 6.26276C22.4828 5.41524 22.1455 4.60394 21.55 4.00087V4.00087ZM20.14 7.12087L17.67 9.59087L15.21 7.12087C15.0944 7.00334 15.0032 6.86419 14.9414 6.71138C14.8796 6.55857 14.8485 6.39509 14.8499 6.23026C14.8527 5.89739 14.9876 5.57926 15.225 5.34587C15.4624 5.11248 15.7827 4.98294 16.1156 4.98576C16.4485 4.98857 16.7666 5.1235 17 5.36087C17.093 5.4546 17.2036 5.52899 17.3254 5.57976C17.4473 5.63053 17.578 5.65667 17.71 5.65667C17.842 5.65667 17.9727 5.63053 18.0946 5.57976C18.2164 5.52899 18.327 5.4546 18.42 5.36087C18.6577 5.13581 18.9726 5.01039 19.3 5.01039C19.6274 5.01039 19.9423 5.13581 20.18 5.36087C20.4044 5.6014 20.5258 5.92015 20.5184 6.24901C20.5109 6.57788 20.3751 6.89078 20.14 7.12087V7.12087Z" fill="black"/>
</svg>
