<svg width="24" height="24" viewBox="0 0 24 24" fill="none" xmlns="http://www.w3.org/2000/svg">
<path d="M20.5 7.43977V6.25977C20.5 5.46412 20.1839 4.70105 19.6213 4.13845C19.0587 3.57584 18.2956 3.25977 17.5 3.25977C16.7044 3.25977 15.9413 3.57584 15.3787 4.13845C14.8161 4.70105 14.5 5.46412 14.5 6.25977V7.43977C13.9165 7.64608 13.411 8.02784 13.0529 8.5327C12.6949 9.03756 12.5017 9.64082 12.5 10.2598V12.2598C12.5 13.0554 12.8161 13.8185 13.3787 14.3811C13.9413 14.9437 14.7044 15.2598 15.5 15.2598H19.5C20.2956 15.2598 21.0587 14.9437 21.6213 14.3811C22.1839 13.8185 22.5 13.0554 22.5 12.2598V10.2598C22.4983 9.64082 22.3051 9.03756 21.9471 8.5327C21.589 8.02784 21.0835 7.64608 20.5 7.43977V7.43977ZM16.5 6.25977C16.5 5.99455 16.6054 5.7402 16.7929 5.55266C16.9804 5.36512 17.2348 5.25977 17.5 5.25977C17.7652 5.25977 18.0196 5.36512 18.2071 5.55266C18.3946 5.7402 18.5 5.99455 18.5 6.25977V7.25977H16.5V6.25977ZM20.5 12.2598C20.5 12.525 20.3946 12.7793 20.2071 12.9669C20.0196 13.1544 19.7652 13.2598 19.5 13.2598H15.5C15.2348 13.2598 14.9804 13.1544 14.7929 12.9669C14.6054 12.7793 14.5 12.525 14.5 12.2598V10.2598C14.5 9.99455 14.6054 9.7402 14.7929 9.55266C14.9804 9.36512 15.2348 9.25977 15.5 9.25977H19.5C19.7652 9.25977 20.0196 9.36512 20.2071 9.55266C20.3946 9.7402 20.5 9.99455 20.5 10.2598V12.2598ZM20.5 17.2598C20.2348 17.2598 19.9804 17.3651 19.7929 17.5527C19.6054 17.7402 19.5 17.9945 19.5 18.2598V19.2598C19.5 19.525 19.3946 19.7793 19.2071 19.9669C19.0196 20.1544 18.7652 20.2598 18.5 20.2598H4.5C4.23478 20.2598 3.98043 20.1544 3.79289 19.9669C3.60536 19.7793 3.5 19.525 3.5 19.2598V9.66977L9.38 15.5498C9.47258 15.643 9.58262 15.7171 9.70384 15.7678C9.82505 15.8185 9.95507 15.8449 10.0865 15.8453C10.2179 15.8458 10.3481 15.8204 10.4696 15.7705C10.5912 15.7207 10.7018 15.6473 10.795 15.5548C10.8882 15.4622 10.9623 15.3521 11.013 15.2309C11.0638 15.1097 11.0901 14.9797 11.0906 14.8483C11.091 14.7169 11.0656 14.5867 11.0157 14.4651C10.9659 14.3436 10.8926 14.233 10.8 14.1398L4.91 8.25977H10.5C10.7652 8.25977 11.0196 8.15441 11.2071 7.96687C11.3946 7.77934 11.5 7.52498 11.5 7.25977C11.5 6.99455 11.3946 6.7402 11.2071 6.55266C11.0196 6.36512 10.7652 6.25977 10.5 6.25977H4.5C3.70435 6.25977 2.94129 6.57584 2.37868 7.13845C1.81607 7.70105 1.5 8.46412 1.5 9.25977V19.2598C1.5 20.0554 1.81607 20.8185 2.37868 21.3811C2.94129 21.9437 3.70435 22.2598 4.5 22.2598H18.5C19.2956 22.2598 20.0587 21.9437 20.6213 21.3811C21.1839 20.8185 21.5 20.0554 21.5 19.2598V18.2598C21.5 17.9945 21.3946 17.7402 21.2071 17.5527C21.0196 17.3651 20.7652 17.2598 20.5 17.2598V17.2598Z" fill="black"/>
</svg>
