<svg width="24" height="24" viewBox="0 0 24 24" fill="none" xmlns="http://www.w3.org/2000/svg">
<path d="M14 17.9992C14.2653 17.9992 14.5196 17.8938 14.7071 17.7063C14.8947 17.5187 15 17.2644 15 16.9992V14.9992C15 14.734 14.8947 14.4796 14.7071 14.2921C14.5196 14.1045 14.2653 13.9992 14 13.9992C13.7348 13.9992 13.4805 14.1045 13.2929 14.2921C13.1054 14.4796 13 14.734 13 14.9992V16.9992C13 17.2644 13.1054 17.5187 13.2929 17.7063C13.4805 17.8938 13.7348 17.9992 14 17.9992ZM10 17.9992C10.2653 17.9992 10.5196 17.8938 10.7071 17.7063C10.8947 17.5187 11 17.2644 11 16.9992V14.9992C11 14.734 10.8947 14.4796 10.7071 14.2921C10.5196 14.1045 10.2653 13.9992 10 13.9992C9.73482 13.9992 9.48047 14.1045 9.29293 14.2921C9.10539 14.4796 9.00004 14.734 9.00004 14.9992V16.9992C9.00004 17.2644 9.10539 17.5187 9.29293 17.7063C9.48047 17.8938 9.73482 17.9992 10 17.9992ZM19 5.99917H17.62L15.89 2.54917C15.8372 2.42223 15.7587 2.30755 15.6595 2.2123C15.5603 2.11705 15.4426 2.04329 15.3136 1.99561C15.1846 1.94794 15.0472 1.92738 14.9099 1.93522C14.7726 1.94306 14.6384 1.97913 14.5157 2.04118C14.3929 2.10323 14.2843 2.18992 14.1966 2.29584C14.1089 2.40176 14.044 2.52463 14.006 2.65677C13.9679 2.78891 13.9575 2.92748 13.9754 3.06382C13.9933 3.20016 14.0391 3.33135 14.11 3.44917L15.38 5.99917H8.62004L9.89004 3.44917C9.9871 3.21608 9.9924 2.9549 9.90486 2.71806C9.81732 2.48122 9.64343 2.28627 9.4181 2.17234C9.19277 2.05841 8.93268 2.03393 8.69005 2.10383C8.44742 2.17373 8.24022 2.33282 8.11004 2.54917L6.38004 5.99917H5.00004C4.29323 6.00992 3.61291 6.26992 3.07909 6.7333C2.54526 7.19669 2.19221 7.8337 2.08221 8.53198C1.9722 9.23026 2.11231 9.94496 2.47782 10.55C2.84333 11.1551 3.41076 11.6116 4.08004 11.8392L4.82004 19.2992C4.89466 20.0417 5.24338 20.7298 5.79811 21.2291C6.35284 21.7283 7.07374 22.0029 7.82004 21.9992H16.2C16.9463 22.0029 17.6672 21.7283 18.222 21.2291C18.7767 20.7298 19.1254 20.0417 19.2 19.2992L19.94 11.8392C20.6108 11.611 21.1791 11.1527 21.5443 10.5457C21.9096 9.93857 22.0482 9.2218 21.9356 8.52232C21.823 7.82283 21.4665 7.18576 20.9292 6.72395C20.3919 6.26214 19.7085 6.00538 19 5.99917V5.99917ZM17.19 19.0992C17.1652 19.3467 17.0489 19.5761 16.864 19.7425C16.6791 19.9089 16.4388 20.0004 16.19 19.9992H7.81004C7.56127 20.0004 7.32097 19.9089 7.13606 19.7425C6.95115 19.5761 6.83491 19.3467 6.81004 19.0992L6.10004 11.9992H17.9L17.19 19.0992ZM19 9.99917H5.00004C4.73482 9.99917 4.48047 9.89382 4.29293 9.70628C4.10539 9.51874 4.00004 9.26439 4.00004 8.99917C4.00004 8.73396 4.10539 8.4796 4.29293 8.29207C4.48047 8.10453 4.73482 7.99917 5.00004 7.99917H19C19.2653 7.99917 19.5196 8.10453 19.7071 8.29207C19.8947 8.4796 20 8.73396 20 8.99917C20 9.26439 19.8947 9.51874 19.7071 9.70628C19.5196 9.89382 19.2653 9.99917 19 9.99917Z" fill="black"/>
</svg>
