<svg width="24" height="24" viewBox="0 0 24 24" fill="none" xmlns="http://www.w3.org/2000/svg">
<path d="M18 6.99931H17.65C17.8782 6.53207 17.9979 6.01929 18 5.49931C18.003 4.80263 17.7975 4.12099 17.4098 3.54214C17.0221 2.96328 16.4701 2.51369 15.8247 2.25124C15.1794 1.9888 14.4703 1.92551 13.7886 2.06952C13.107 2.21353 12.4841 2.55825 12 3.0593C11.5159 2.55825 10.893 2.21353 10.2114 2.06952C9.52975 1.92551 8.82061 1.9888 8.17525 2.25124C7.5299 2.51369 6.97786 2.96328 6.59019 3.54214C6.20252 4.12099 5.99697 4.80263 6 5.49931C6.00213 6.01929 6.12178 6.53207 6.35 6.99931H6C5.20435 6.99931 4.44129 7.31538 3.87868 7.87799C3.31607 8.44059 3 9.20366 3 9.9993V11.9993C3 12.2645 3.10536 12.5189 3.29289 12.7064C3.48043 12.8939 3.73478 12.9993 4 12.9993H5V18.9993C5 19.795 5.31607 20.558 5.87868 21.1206C6.44129 21.6832 7.20435 21.9993 8 21.9993H16C16.7956 21.9993 17.5587 21.6832 18.1213 21.1206C18.6839 20.558 19 19.795 19 18.9993V12.9993H20C20.2652 12.9993 20.5196 12.8939 20.7071 12.7064C20.8946 12.5189 21 12.2645 21 11.9993V9.9993C21 9.20366 20.6839 8.44059 20.1213 7.87799C19.5587 7.31538 18.7956 6.99931 18 6.99931ZM11 19.9993H8C7.73478 19.9993 7.48043 19.8939 7.29289 19.7064C7.10536 19.5189 7 19.2645 7 18.9993V12.9993H11V19.9993ZM11 10.9993H5V9.9993C5 9.73409 5.10536 9.47974 5.29289 9.2922C5.48043 9.10466 5.73478 8.99931 6 8.99931H11V10.9993ZM11 6.99931H9.5C9.20333 6.99931 8.91332 6.91133 8.66665 6.74651C8.41997 6.58169 8.22771 6.34742 8.11418 6.07333C8.00065 5.79924 7.97094 5.49764 8.02882 5.20667C8.0867 4.9157 8.22956 4.64842 8.43934 4.43864C8.64912 4.22887 8.91639 4.086 9.20736 4.02813C9.49834 3.97025 9.79994 3.99995 10.074 4.11349C10.3481 4.22702 10.5824 4.41928 10.7472 4.66595C10.912 4.91262 11 5.20263 11 5.49931V6.99931ZM13 5.49931C13 5.20263 13.088 4.91262 13.2528 4.66595C13.4176 4.41928 13.6519 4.22702 13.926 4.11349C14.2001 3.99995 14.5017 3.97025 14.7926 4.02813C15.0836 4.086 15.3509 4.22887 15.5607 4.43864C15.7704 4.64842 15.9133 4.9157 15.9712 5.20667C16.0291 5.49764 15.9994 5.79924 15.8858 6.07333C15.7723 6.34742 15.58 6.58169 15.3334 6.74651C15.0867 6.91133 14.7967 6.99931 14.5 6.99931H13V5.49931ZM17 18.9993C17 19.2645 16.8946 19.5189 16.7071 19.7064C16.5196 19.8939 16.2652 19.9993 16 19.9993H13V12.9993H17V18.9993ZM19 10.9993H13V8.99931H18C18.2652 8.99931 18.5196 9.10466 18.7071 9.2922C18.8946 9.47974 19 9.73409 19 9.9993V10.9993Z" fill="black"/>
</svg>
