<svg width="24" height="24" viewBox="0 0 24 24" fill="none" xmlns="http://www.w3.org/2000/svg">
<path d="M22 7.8205C22.0048 7.75726 22.0048 7.69374 22 7.6305V7.6305L20 2.6305C19.9219 2.43286 19.7828 2.26524 19.603 2.15196C19.4232 2.03868 19.212 1.98562 19 2.0005H5C4.79972 2.00031 4.604 2.06026 4.43818 2.17258C4.27237 2.28491 4.1441 2.44443 4.07 2.6305L2.07 7.6305C2.06518 7.69374 2.06518 7.75726 2.07 7.8205C2.03677 7.87617 2.01311 7.93701 2 8.0005V8.0005C2.01113 8.69174 2.20123 9.3683 2.55174 9.96418C2.90226 10.5601 3.40124 11.0549 4 11.4005V21.0005C4 21.2657 4.10536 21.5201 4.29289 21.7076C4.48043 21.8951 4.73478 22.0005 5 22.0005H19C19.2652 22.0005 19.5196 21.8951 19.7071 21.7076C19.8946 21.5201 20 21.2657 20 21.0005V11.4405C20.6046 11.0915 21.1072 10.5903 21.4581 9.98684C21.809 9.38335 21.9958 8.69856 22 8.0005V8.0005C22.0094 7.94087 22.0094 7.88013 22 7.8205V7.8205ZM13 20.0005H11V16.0005H13V20.0005ZM18 20.0005H15V15.0005C15 14.7353 14.8946 14.4809 14.7071 14.2934C14.5196 14.1059 14.2652 14.0005 14 14.0005H10C9.73478 14.0005 9.48043 14.1059 9.29289 14.2934C9.10536 14.4809 9 14.7353 9 15.0005V20.0005H6V12.0005C6.56947 11.9973 7.13169 11.8725 7.64905 11.6345C8.16642 11.3965 8.627 11.0508 9 10.6205C9.37537 11.0461 9.83701 11.387 10.3542 11.6205C10.8715 11.854 11.4325 11.9747 12 11.9747C12.5675 11.9747 13.1285 11.854 13.6458 11.6205C14.163 11.387 14.6246 11.0461 15 10.6205C15.373 11.0508 15.8336 11.3965 16.3509 11.6345C16.8683 11.8725 17.4305 11.9973 18 12.0005V20.0005ZM18 10.0005C17.4696 10.0005 16.9609 9.78979 16.5858 9.41471C16.2107 9.03964 16 8.53093 16 8.0005C16 7.73528 15.8946 7.48093 15.7071 7.29339C15.5196 7.10586 15.2652 7.0005 15 7.0005C14.7348 7.0005 14.4804 7.10586 14.2929 7.29339C14.1054 7.48093 14 7.73528 14 8.0005C14 8.53093 13.7893 9.03964 13.4142 9.41471C13.0391 9.78979 12.5304 10.0005 12 10.0005C11.4696 10.0005 10.9609 9.78979 10.5858 9.41471C10.2107 9.03964 10 8.53093 10 8.0005C10 7.73528 9.89464 7.48093 9.70711 7.29339C9.51957 7.10586 9.26522 7.0005 9 7.0005C8.73478 7.0005 8.48043 7.10586 8.29289 7.29339C8.10536 7.48093 8 7.73528 8 8.0005C8.00985 8.26314 7.96787 8.52516 7.87646 8.77158C7.78505 9.018 7.646 9.244 7.46725 9.43668C7.28849 9.62936 7.07354 9.78495 6.83466 9.89456C6.59578 10.0042 6.33764 10.0657 6.075 10.0755C5.54457 10.0954 5.02796 9.90375 4.63882 9.54275C4.44614 9.36399 4.29055 9.14904 4.18094 8.91016C4.07133 8.67128 4.00985 8.41314 4 8.1505L5.68 4.0005H18.32L20 8.1505C19.9621 8.65452 19.7348 9.12549 19.3637 9.46871C18.9927 9.81192 18.5054 10.0019 18 10.0005V10.0005Z" fill="black"/>
</svg>
