<svg width="18" height="18" viewBox="0 0 18 18" fill="none" xmlns="http://www.w3.org/2000/svg">
<path d="M9.51753 14C9.41528 14 9.33646 13.9723 9.28108 13.9169C9.22569 13.8615 9.198 13.7817 9.198 13.6773V12.07C9.198 11.9657 9.22569 11.8858 9.28108 11.8304C9.33646 11.775 9.41528 11.7473 9.51753 11.7473H10.147C10.5411 11.7473 10.8457 11.8453 11.0609 12.0413C11.2781 12.2373 11.3868 12.5142 11.3868 12.8721C11.3868 13.051 11.3591 13.2108 11.3037 13.3514C11.2483 13.4898 11.1674 13.608 11.0609 13.706C10.9544 13.8019 10.8244 13.8754 10.671 13.9265C10.5177 13.9755 10.343 14 10.147 14H9.51753ZM9.81788 13.4951H10.1087C10.2173 13.4951 10.311 13.4824 10.3898 13.4568C10.4687 13.4312 10.5347 13.3929 10.588 13.3418C10.6412 13.2906 10.6796 13.2267 10.703 13.1501C10.7286 13.0712 10.7413 12.9786 10.7413 12.8721C10.7413 12.659 10.6891 12.5025 10.5848 12.4024C10.4804 12.3022 10.3217 12.2522 10.1087 12.2522H9.81788V13.4951ZM12.8247 14.0383C12.5968 14.0383 12.3955 13.9893 12.2208 13.8914C12.0461 13.7934 11.9098 13.657 11.8118 13.4824C11.7159 13.3056 11.668 13.1021 11.668 12.8721C11.668 12.6974 11.6957 12.5387 11.7511 12.396C11.8065 12.2532 11.8853 12.1308 11.9875 12.0285C12.0898 11.9263 12.2112 11.8474 12.3518 11.7921C12.4945 11.7367 12.6522 11.709 12.8247 11.709C13.0548 11.709 13.2561 11.758 13.4286 11.856C13.6033 11.9518 13.7386 12.0871 13.8344 12.2618C13.9324 12.4364 13.9814 12.6399 13.9814 12.8721C13.9814 13.0467 13.9537 13.2054 13.8983 13.3482C13.8429 13.4909 13.7641 13.6144 13.6619 13.7188C13.5596 13.8211 13.4371 13.8999 13.2944 13.9553C13.1538 14.0107 12.9973 14.0383 12.8247 14.0383ZM12.8247 13.5175C12.9312 13.5175 13.0228 13.4919 13.0995 13.4408C13.1762 13.3897 13.2348 13.3162 13.2752 13.2203C13.3157 13.1224 13.336 13.0063 13.336 12.8721C13.336 12.6697 13.2902 12.5121 13.1986 12.3992C13.1091 12.2863 12.9845 12.2298 12.8247 12.2298C12.7182 12.2298 12.6266 12.2554 12.5499 12.3065C12.4732 12.3555 12.4146 12.4279 12.3742 12.5238C12.3337 12.6196 12.3135 12.7357 12.3135 12.8721C12.3135 13.0766 12.3582 13.2353 12.4477 13.3482C12.5393 13.4611 12.6649 13.5175 12.8247 13.5175ZM15.4721 14.0383C15.2207 14.0383 15.0045 13.9904 14.8234 13.8946C14.6424 13.7966 14.5028 13.6602 14.4049 13.4856C14.309 13.3109 14.2611 13.1064 14.2611 12.8721C14.2611 12.6974 14.2888 12.5387 14.3441 12.396C14.3995 12.2532 14.4794 12.1308 14.5838 12.0285C14.6882 11.9263 14.8149 11.8474 14.964 11.7921C15.1131 11.7367 15.2825 11.709 15.4721 11.709C15.5679 11.709 15.667 11.7207 15.7692 11.7441C15.8736 11.7654 15.9652 11.7963 16.044 11.8368C16.1079 11.8687 16.1516 11.9113 16.175 11.9646C16.2006 12.0157 16.2102 12.069 16.2038 12.1244C16.1974 12.1776 16.1782 12.2256 16.1463 12.2682C16.1165 12.3108 16.0771 12.3406 16.0281 12.3576C15.9812 12.3725 15.9279 12.3661 15.8683 12.3385C15.8065 12.3086 15.7447 12.2873 15.683 12.2745C15.6233 12.2596 15.5605 12.2522 15.4944 12.2522C15.3666 12.2522 15.2591 12.2767 15.1717 12.3257C15.0865 12.3725 15.0226 12.4418 14.98 12.5334C14.9374 12.625 14.9161 12.7379 14.9161 12.8721C14.9161 13.0063 14.9374 13.1202 14.98 13.214C15.0226 13.3056 15.0865 13.3759 15.1717 13.4248C15.2591 13.4717 15.3666 13.4951 15.4944 13.4951C15.5477 13.4951 15.6042 13.4898 15.6638 13.4792C15.7256 13.4664 15.7863 13.4462 15.8459 13.4185C15.912 13.3908 15.9705 13.3844 16.0217 13.3993C16.0749 13.4121 16.1175 13.4398 16.1495 13.4824C16.1836 13.5228 16.2038 13.5697 16.2102 13.623C16.2187 13.6762 16.2113 13.7284 16.1878 13.7795C16.1644 13.8285 16.1229 13.869 16.0632 13.9009C15.9929 13.9414 15.9034 13.9744 15.7948 14C15.6862 14.0256 15.5786 14.0383 15.4721 14.0383Z" fill="#2C3E50"/>
<path d="M5.73413 7.80859H12.0157" stroke="#2C3E50" stroke-width="0.7" stroke-linecap="round"/>
<path d="M5.71851 10.0664H12.0001" stroke="#2C3E50" stroke-width="0.7" stroke-linecap="round"/>
<path d="M5.71826 12.3438L8.00009 12.3445" stroke="#2C3E50" stroke-width="0.7" stroke-linecap="round"/>
<path d="M10.7195 2.3418V3.43489C10.7195 4.37769 10.7195 4.8491 11.0124 5.14199C11.3052 5.43488 11.7767 5.43488 12.7195 5.43488H13.9655" stroke="#2C3E50" stroke-width="0.7"/>
<path d="M13.8298 10.4314V6.16039C13.8298 5.74581 13.8298 5.53853 13.7517 5.35268C13.6736 5.16683 13.5255 5.02178 13.2294 4.73167L11.4885 3.02637C11.2007 2.74439 11.0568 2.60341 10.8751 2.52924C10.6934 2.45508 10.4919 2.45508 10.089 2.45508H6.14502C5.20221 2.45508 4.7308 2.45508 4.43791 2.74798C4.14502 3.04087 4.14502 3.51228 4.14502 4.45508V13.543C4.14502 14.4858 4.14502 14.9572 4.43791 15.2501C4.7308 15.543 5.20221 15.543 6.14502 15.543H8.98742H11.6138" stroke="#2C3E50" stroke-width="0.7" stroke-linecap="round"/>
</svg>
