<svg width="25" height="24" viewBox="0 0 25 24" fill="none" xmlns="http://www.w3.org/2000/svg">
<path d="M13.3523 18.9999C13.216 18.9999 13.1109 18.963 13.0371 18.8892C12.9632 18.8153 12.9263 18.7088 12.9263 18.5696V16.4267C12.9263 16.2876 12.9632 16.1811 13.0371 16.1072C13.1109 16.0334 13.216 15.9964 13.3523 15.9964H14.1916C14.717 15.9964 15.1232 16.1271 15.41 16.3884C15.6997 16.6497 15.8446 17.0189 15.8446 17.4961C15.8446 17.7346 15.8077 17.9476 15.7338 18.1351C15.66 18.3197 15.552 18.4773 15.41 18.608C15.268 18.7358 15.0948 18.8338 14.8903 18.9019C14.6858 18.9673 14.4529 18.9999 14.1916 18.9999H13.3523ZM13.7528 18.3268H14.1405C14.2853 18.3268 14.4103 18.3098 14.5154 18.2757C14.6205 18.2416 14.7085 18.1905 14.7795 18.1223C14.8505 18.0542 14.9016 17.9689 14.9329 17.8667C14.967 17.7616 14.984 17.6381 14.984 17.4961C14.984 17.212 14.9144 17.0033 14.7752 16.8698C14.6361 16.7363 14.4245 16.6696 14.1405 16.6696H13.7528V18.3268ZM17.7618 19.0511C17.4579 19.0511 17.1895 18.9857 16.9566 18.8551C16.7237 18.7244 16.5419 18.5427 16.4113 18.3098C16.2834 18.074 16.2195 17.8028 16.2195 17.4961C16.2195 17.2632 16.2565 17.0516 16.3303 16.8613C16.4042 16.671 16.5092 16.5077 16.6456 16.3713C16.7819 16.235 16.9438 16.1299 17.1312 16.0561C17.3215 15.9822 17.5317 15.9453 17.7618 15.9453C18.0685 15.9453 18.3369 16.0106 18.567 16.1413C18.7999 16.2691 18.9802 16.4494 19.108 16.6823C19.2387 16.9152 19.304 17.1865 19.304 17.4961C19.304 17.729 19.2671 17.9405 19.1932 18.1308C19.1194 18.3211 19.0143 18.4859 18.878 18.625C18.7416 18.7614 18.5783 18.8664 18.388 18.9403C18.2006 19.0141 17.9918 19.0511 17.7618 19.0511ZM17.7618 18.3566C17.9038 18.3566 18.0259 18.3225 18.1281 18.2544C18.2304 18.1862 18.3085 18.0882 18.3625 17.9604C18.4164 17.8298 18.4434 17.675 18.4434 17.4961C18.4434 17.2262 18.3823 17.0161 18.2602 16.8655C18.1409 16.715 17.9748 16.6397 17.7618 16.6397C17.6198 16.6397 17.4976 16.6738 17.3954 16.742C17.2931 16.8073 17.215 16.9039 17.1611 17.0317C17.1071 17.1595 17.0801 17.3143 17.0801 17.4961C17.0801 17.7687 17.1398 17.9803 17.2591 18.1308C17.3812 18.2814 17.5488 18.3566 17.7618 18.3566ZM21.2915 19.0511C20.9564 19.0511 20.6681 18.9872 20.4267 18.8593C20.1853 18.7287 19.9992 18.5469 19.8686 18.314C19.7408 18.0811 19.6769 17.8085 19.6769 17.4961C19.6769 17.2632 19.7138 17.0516 19.7876 16.8613C19.8615 16.671 19.968 16.5077 20.1071 16.3713C20.2463 16.235 20.4153 16.1299 20.6141 16.0561C20.8129 15.9822 21.0387 15.9453 21.2915 15.9453C21.4193 15.9453 21.5514 15.9609 21.6877 15.9922C21.8269 16.0206 21.949 16.0618 22.0541 16.1157C22.1393 16.1583 22.1975 16.2151 22.2288 16.2861C22.2628 16.3543 22.2756 16.4253 22.2671 16.4992C22.2586 16.5702 22.233 16.6341 22.1904 16.6909C22.1507 16.7477 22.0981 16.7874 22.0328 16.8102C21.9703 16.83 21.8993 16.8215 21.8198 16.7846C21.7374 16.7448 21.655 16.7164 21.5727 16.6994C21.4932 16.6795 21.4094 16.6696 21.3213 16.6696C21.1509 16.6696 21.0075 16.7022 20.891 16.7675C20.7774 16.83 20.6922 16.9223 20.6354 17.0445C20.5786 17.1666 20.5502 17.3171 20.5502 17.4961C20.5502 17.675 20.5786 17.8269 20.6354 17.9519C20.6922 18.074 20.7774 18.1678 20.891 18.2331C21.0075 18.2956 21.1509 18.3268 21.3213 18.3268C21.3923 18.3268 21.4676 18.3197 21.5471 18.3055C21.6295 18.2885 21.7104 18.2615 21.79 18.2246C21.878 18.1876 21.9561 18.1791 22.0243 18.199C22.0953 18.216 22.1521 18.253 22.1947 18.3098C22.2401 18.3637 22.2671 18.4262 22.2756 18.4972C22.287 18.5682 22.277 18.6378 22.2458 18.706C22.2146 18.7713 22.1592 18.8253 22.0797 18.8679C21.9859 18.9218 21.8666 18.9659 21.7218 18.9999C21.5769 19.034 21.4335 19.0511 21.2915 19.0511Z" fill="#2C3E50"/>
<path d="M8.30762 10.4102H16.6828" stroke="#2C3E50" stroke-width="0.93331" stroke-linecap="round"/>
<path d="M8.28662 13.4219H16.6618" stroke="#2C3E50" stroke-width="0.93331" stroke-linecap="round"/>
<path d="M8.28638 16.457L11.3287 16.4581" stroke="#2C3E50" stroke-width="0.93331" stroke-linecap="round"/>
<path d="M14.9546 3.12305V4.58046C14.9546 5.83751 14.9546 6.46603 15.3451 6.85654C15.7356 7.24706 16.3641 7.24706 17.6212 7.24706H19.2826" stroke="#2C3E50" stroke-width="0.93331"/>
<path d="M19.1015 13.9103V8.21567C19.1015 7.66292 19.1015 7.38654 18.9974 7.13875C18.8932 6.89096 18.6958 6.69756 18.3009 6.31076L15.9799 4.03708C15.5961 3.66112 15.4042 3.47314 15.162 3.37427C14.9197 3.27539 14.6511 3.27539 14.1139 3.27539H8.85532C7.59827 3.27539 6.96975 3.27539 6.57924 3.6659C6.18872 4.05642 6.18872 4.68494 6.18872 5.94199V18.0589C6.18872 19.316 6.18872 19.9445 6.57924 20.335C6.96975 20.7255 7.59827 20.7255 8.85532 20.7255H12.6451H16.147" stroke="#2C3E50" stroke-width="0.93331" stroke-linecap="round"/>
</svg>
