<svg width="33" height="33" viewBox="0 0 33 33" fill="none" xmlns="http://www.w3.org/2000/svg">
<path d="M17.4682 25.3364C17.2864 25.3364 17.1463 25.2872 17.0478 25.1887C16.9494 25.0903 16.9001 24.9483 16.9001 24.7627V21.9056C16.9001 21.72 16.9494 21.578 17.0478 21.4795C17.1463 21.3811 17.2864 21.3319 17.4682 21.3319H18.5872C19.2877 21.3319 19.8292 21.506 20.2117 21.8544C20.598 22.2028 20.7911 22.6951 20.7911 23.3313C20.7911 23.6494 20.7419 23.9334 20.6434 24.1833C20.545 24.4295 20.4011 24.6396 20.2117 24.8138C20.0224 24.9842 19.7914 25.1149 19.5187 25.2058C19.2461 25.2929 18.9356 25.3364 18.5872 25.3364H17.4682ZM18.0021 24.4389H18.519C18.7121 24.4389 18.8788 24.4162 19.0189 24.3708C19.159 24.3253 19.2764 24.2572 19.371 24.1663C19.4657 24.0754 19.5339 23.9618 19.5755 23.8255C19.621 23.6854 19.6437 23.5206 19.6437 23.3313C19.6437 22.9526 19.5509 22.6743 19.3654 22.4963C19.1798 22.3183 18.8977 22.2293 18.519 22.2293H18.0021V24.4389ZM23.3473 25.4046C22.9421 25.4046 22.5842 25.3175 22.2737 25.1433C21.9632 24.9691 21.7208 24.7267 21.5467 24.4162C21.3762 24.1019 21.291 23.7403 21.291 23.3313C21.291 23.0208 21.3403 22.7387 21.4387 22.4849C21.5372 22.2312 21.6773 22.0135 21.8591 21.8317C22.0408 21.6499 22.2567 21.5098 22.5066 21.4114C22.7603 21.3129 23.0406 21.2637 23.3473 21.2637C23.7563 21.2637 24.1141 21.3508 24.4208 21.525C24.7314 21.6954 24.9718 21.9359 25.1422 22.2464C25.3164 22.5569 25.4035 22.9185 25.4035 23.3313C25.4035 23.6418 25.3543 23.9239 25.2558 24.1776C25.1574 24.4314 25.0173 24.651 24.8355 24.8366C24.6537 25.0183 24.436 25.1584 24.1823 25.2569C23.9323 25.3553 23.654 25.4046 23.3473 25.4046ZM23.3473 24.4787C23.5366 24.4787 23.6995 24.4333 23.8358 24.3424C23.9721 24.2515 24.0762 24.1208 24.1482 23.9504C24.2201 23.7762 24.2561 23.5699 24.2561 23.3313C24.2561 22.9715 24.1747 22.6913 24.0119 22.4906C23.8528 22.2899 23.6313 22.1896 23.3473 22.1896C23.1579 22.1896 22.9951 22.235 22.8588 22.3259C22.7225 22.413 22.6183 22.5417 22.5464 22.7122C22.4744 22.8826 22.4384 23.0889 22.4384 23.3313C22.4384 23.6948 22.518 23.9769 22.677 24.1776C22.8399 24.3784 23.0633 24.4787 23.3473 24.4787ZM28.0535 25.4046C27.6066 25.4046 27.2223 25.3194 26.9004 25.149C26.5785 24.9748 26.3305 24.7324 26.1563 24.4219C25.9859 24.1114 25.9007 23.7478 25.9007 23.3313C25.9007 23.0208 25.9499 22.7387 26.0484 22.4849C26.1468 22.2312 26.2888 22.0135 26.4744 21.8317C26.6599 21.6499 26.8853 21.5098 27.1503 21.4114C27.4154 21.3129 27.7165 21.2637 28.0535 21.2637C28.2239 21.2637 28.4 21.2845 28.5817 21.3262C28.7673 21.364 28.9301 21.419 29.0702 21.4909C29.1839 21.5477 29.2615 21.6234 29.3031 21.7181C29.3486 21.809 29.3656 21.9037 29.3543 22.0021C29.3429 22.0968 29.3088 22.182 29.252 22.2577C29.199 22.3335 29.1289 22.3865 29.0418 22.4168C28.9585 22.4433 28.8639 22.4319 28.7578 22.3827C28.648 22.3297 28.5382 22.2918 28.4284 22.2691C28.3224 22.2426 28.2106 22.2293 28.0932 22.2293C27.866 22.2293 27.6748 22.2729 27.5195 22.36C27.3681 22.4433 27.2545 22.5664 27.1787 22.7292C27.103 22.892 27.0651 23.0927 27.0651 23.3313C27.0651 23.5699 27.103 23.7725 27.1787 23.9391C27.2545 24.1019 27.3681 24.2269 27.5195 24.314C27.6748 24.3973 27.866 24.4389 28.0932 24.4389C28.1879 24.4389 28.2883 24.4295 28.3943 24.4105C28.5041 24.3878 28.612 24.3518 28.7181 24.3026C28.8355 24.2534 28.9396 24.242 29.0305 24.2685C29.1252 24.2913 29.2009 24.3405 29.2577 24.4162C29.3183 24.4882 29.3543 24.5715 29.3656 24.6661C29.3808 24.7608 29.3675 24.8536 29.3259 24.9445C29.2842 25.0316 29.2104 25.1035 29.1043 25.1603C28.9794 25.2323 28.8203 25.291 28.6272 25.3364C28.4341 25.3819 28.2428 25.4046 28.0535 25.4046Z" fill="#2C3E50"/>
<path d="M10.7422 13.8828H21.9088" stroke="#2C3E50" stroke-width="1.24438" stroke-linecap="round"/>
<path d="M10.7146 17.8984H21.8812" stroke="#2C3E50" stroke-width="1.24438" stroke-linecap="round"/>
<path d="M10.7141 21.9453L14.7705 21.9467" stroke="#2C3E50" stroke-width="1.24438" stroke-linecap="round"/>
<path d="M19.6045 4.16602V6.10918C19.6045 7.78521 19.6045 8.62322 20.1251 9.14389C20.6458 9.66456 21.4838 9.66456 23.1598 9.66456H25.375" stroke="#2C3E50" stroke-width="1.24438"/>
<path d="M25.1338 18.5486V10.956C25.1338 10.219 25.1338 9.85054 24.9949 9.52016C24.8561 9.18978 24.5929 8.93192 24.0664 8.4162L20.9717 5.3847C20.46 4.88344 20.2042 4.63281 19.8812 4.50097C19.5582 4.36914 19.2001 4.36914 18.4838 4.36914H11.4726C9.79659 4.36914 8.95858 4.36914 8.43791 4.88981C7.91724 5.41048 7.91724 6.2485 7.91724 7.92452V24.0801C7.91724 25.7561 7.91724 26.5941 8.43791 27.1148C8.95858 27.6355 9.79659 27.6355 11.4726 27.6355H16.5255H21.1945" stroke="#2C3E50" stroke-width="1.24438" stroke-linecap="round"/>
</svg>
