<svg width="25" height="24" viewBox="0 0 25 24" fill="none" xmlns="http://www.w3.org/2000/svg">
<path d="M13.3522 18.9996C13.2159 18.9996 13.1108 18.9627 13.037 18.8889C12.9631 18.815 12.9262 18.7085 12.9262 18.5693V16.4264C12.9262 16.2873 12.9631 16.1808 13.037 16.1069C13.1108 16.0331 13.2159 15.9961 13.3522 15.9961H14.1915C14.7169 15.9961 15.1231 16.1268 15.4099 16.3881C15.6996 16.6494 15.8445 17.0186 15.8445 17.4958C15.8445 17.7343 15.8076 17.9473 15.7337 18.1348C15.6599 18.3194 15.5519 18.477 15.4099 18.6077C15.2679 18.7355 15.0947 18.8335 14.8902 18.9016C14.6857 18.967 14.4528 18.9996 14.1915 18.9996H13.3522ZM13.7527 18.3265H14.1404C14.2852 18.3265 14.4102 18.3095 14.5153 18.2754C14.6204 18.2413 14.7084 18.1902 14.7794 18.122C14.8504 18.0539 14.9015 17.9686 14.9328 17.8664C14.9669 17.7613 14.9839 17.6378 14.9839 17.4958C14.9839 17.2117 14.9143 17.003 14.7751 16.8695C14.636 16.736 14.4244 16.6693 14.1404 16.6693H13.7527V18.3265ZM17.7617 19.0508C17.4578 19.0508 17.1894 18.9854 16.9565 18.8548C16.7236 18.7241 16.5418 18.5424 16.4112 18.3095C16.2833 18.0737 16.2194 17.8025 16.2194 17.4958C16.2194 17.2629 16.2564 17.0513 16.3302 16.861C16.4041 16.6707 16.5091 16.5074 16.6455 16.371C16.7818 16.2347 16.9437 16.1296 17.1311 16.0558C17.3214 15.9819 17.5316 15.945 17.7617 15.945C18.0684 15.945 18.3368 16.0103 18.5669 16.141C18.7998 16.2688 18.9801 16.4491 19.1079 16.682C19.2386 16.9149 19.3039 17.1862 19.3039 17.4958C19.3039 17.7287 19.267 17.9402 19.1931 18.1305C19.1193 18.3208 19.0142 18.4856 18.8779 18.6247C18.7415 18.7611 18.5782 18.8661 18.3879 18.94C18.2005 19.0138 17.9917 19.0508 17.7617 19.0508ZM17.7617 18.3563C17.9037 18.3563 18.0258 18.3222 18.128 18.2541C18.2303 18.1859 18.3084 18.0879 18.3624 17.9601C18.4163 17.8295 18.4433 17.6747 18.4433 17.4958C18.4433 17.2259 18.3822 17.0158 18.2601 16.8652C18.1408 16.7147 17.9747 16.6394 17.7617 16.6394C17.6197 16.6394 17.4975 16.6735 17.3953 16.7417C17.293 16.807 17.2149 16.9036 17.161 17.0314C17.107 17.1592 17.08 17.314 17.08 17.4958C17.08 17.7684 17.1397 17.98 17.259 18.1305C17.3811 18.2811 17.5487 18.3563 17.7617 18.3563ZM21.2914 19.0508C20.9563 19.0508 20.668 18.9869 20.4266 18.859C20.1852 18.7284 19.9991 18.5466 19.8685 18.3137C19.7407 18.0808 19.6768 17.8082 19.6768 17.4958C19.6768 17.2629 19.7137 17.0513 19.7875 16.861C19.8614 16.6707 19.9679 16.5074 20.107 16.371C20.2462 16.2347 20.4152 16.1296 20.614 16.0558C20.8128 15.9819 21.0386 15.945 21.2914 15.945C21.4192 15.945 21.5513 15.9606 21.6876 15.9919C21.8268 16.0203 21.9489 16.0615 22.054 16.1154C22.1392 16.158 22.1974 16.2148 22.2287 16.2858C22.2627 16.354 22.2755 16.425 22.267 16.4989C22.2585 16.5699 22.2329 16.6338 22.1903 16.6906C22.1506 16.7474 22.098 16.7871 22.0327 16.8099C21.9702 16.8297 21.8992 16.8212 21.8197 16.7843C21.7373 16.7445 21.6549 16.7161 21.5726 16.6991C21.4931 16.6792 21.4093 16.6693 21.3212 16.6693C21.1508 16.6693 21.0074 16.7019 20.8909 16.7672C20.7773 16.8297 20.6921 16.922 20.6353 17.0442C20.5785 17.1663 20.5501 17.3168 20.5501 17.4958C20.5501 17.6747 20.5785 17.8266 20.6353 17.9516C20.6921 18.0737 20.7773 18.1675 20.8909 18.2328C21.0074 18.2953 21.1508 18.3265 21.3212 18.3265C21.3922 18.3265 21.4675 18.3194 21.547 18.3052C21.6294 18.2882 21.7103 18.2612 21.7899 18.2243C21.8779 18.1873 21.956 18.1788 22.0242 18.1987C22.0952 18.2157 22.152 18.2527 22.1946 18.3095C22.24 18.3634 22.267 18.4259 22.2755 18.4969C22.2869 18.5679 22.2769 18.6375 22.2457 18.7057C22.2145 18.771 22.1591 18.825 22.0796 18.8676C21.9858 18.9215 21.8665 18.9656 21.7217 18.9996C21.5768 19.0337 21.4334 19.0508 21.2914 19.0508Z" fill="#2C3E50"/>
<path d="M8.3075 10.4103H16.6827" stroke="#2C3E50" stroke-width="0.93331" stroke-linecap="round"/>
<path d="M8.28674 13.4215H16.6619" stroke="#2C3E50" stroke-width="0.93331" stroke-linecap="round"/>
<path d="M8.28647 16.4569L11.3288 16.458" stroke="#2C3E50" stroke-width="0.93331" stroke-linecap="round"/>
<path d="M14.9545 3.12268V4.58009C14.9545 5.83714 14.9545 6.46566 15.345 6.85617C15.7355 7.24669 16.364 7.24669 17.6211 7.24669H19.2825" stroke="#2C3E50" stroke-width="0.93331"/>
<path d="M19.1015 13.9096V8.21494C19.1015 7.66219 19.1015 7.38581 18.9974 7.13802C18.8932 6.89023 18.6958 6.69683 18.3009 6.31003L15.9799 4.03635C15.5961 3.66039 15.4042 3.47241 15.162 3.37354C14.9197 3.27466 14.6511 3.27466 14.1139 3.27466H8.85535C7.5983 3.27466 6.96978 3.27466 6.57927 3.66517C6.18875 4.05569 6.18875 4.68421 6.18875 5.94126V18.0582C6.18875 19.3153 6.18875 19.9438 6.57927 20.3343C6.96978 20.7248 7.5983 20.7248 8.85535 20.7248H12.6451L16.147 20.7248" stroke="#2C3E50" stroke-width="0.93331" stroke-linecap="round"/>
</svg>
