<svg width="25" height="24" viewBox="0 0 25 24" fill="none" xmlns="http://www.w3.org/2000/svg">
<path d="M14.1788 18.9387C14.0453 18.9387 13.9431 18.9018 13.8721 18.8279C13.8011 18.7541 13.7656 18.6504 13.7656 18.5169V16.3101C13.7656 16.1738 13.8011 16.0701 13.8721 15.9991C13.9459 15.9281 14.0496 15.8926 14.1831 15.8926H15.2354C15.579 15.8926 15.8432 15.9806 16.0278 16.1567C16.2152 16.3328 16.3089 16.5757 16.3089 16.8852C16.3089 17.192 16.2152 17.4348 16.0278 17.6137C15.8432 17.7898 15.579 17.8779 15.2354 17.8779H14.5921V18.5169C14.5921 18.6504 14.5566 18.7541 14.4855 18.8279C14.4174 18.9018 14.3151 18.9387 14.1788 18.9387ZM14.5921 17.2431H15.0862C15.2283 17.2431 15.3362 17.2133 15.41 17.1536C15.4839 17.094 15.5208 17.0045 15.5208 16.8852C15.5208 16.7631 15.4839 16.6736 15.41 16.6168C15.3362 16.5572 15.2283 16.5274 15.0862 16.5274H14.5921V17.2431ZM17.0872 18.8961C16.9509 18.8961 16.8458 18.8592 16.772 18.7853C16.6981 18.7115 16.6612 18.605 16.6612 18.4658V16.3229C16.6612 16.1837 16.6981 16.0772 16.772 16.0034C16.8458 15.9295 16.9509 15.8926 17.0872 15.8926H17.9265C18.452 15.8926 18.8581 16.0232 19.145 16.2845C19.4347 16.5458 19.5795 16.9151 19.5795 17.3922C19.5795 17.6308 19.5426 17.8438 19.4687 18.0312C19.3949 18.2159 19.287 18.3735 19.145 18.5041C19.003 18.6319 18.8297 18.7299 18.6252 18.7981C18.4207 18.8634 18.1878 18.8961 17.9265 18.8961H17.0872ZM17.4877 18.223H17.8754C18.0202 18.223 18.1452 18.2059 18.2503 18.1718C18.3554 18.1378 18.4434 18.0866 18.5144 18.0185C18.5854 17.9503 18.6366 17.8651 18.6678 17.7629C18.7019 17.6578 18.7189 17.5342 18.7189 17.3922C18.7189 17.1082 18.6493 16.8994 18.5102 16.7659C18.371 16.6325 18.1594 16.5657 17.8754 16.5657H17.4877V18.223ZM20.4487 18.9387C20.3152 18.9387 20.2115 18.9018 20.1377 18.8279C20.0667 18.7541 20.0312 18.6476 20.0312 18.5084V16.3229C20.0312 16.1837 20.0681 16.0772 20.1419 16.0034C20.2158 15.9295 20.3209 15.8926 20.4572 15.8926H21.8673C21.9753 15.8926 22.0562 15.9196 22.1102 15.9735C22.1641 16.0275 22.1911 16.1056 22.1911 16.2079C22.1911 16.3129 22.1641 16.3925 22.1102 16.4464C22.0562 16.5004 21.9753 16.5274 21.8673 16.5274H20.8577V17.0897H21.7736C21.8787 17.0897 21.9582 17.1167 22.0122 17.1707C22.0662 17.2246 22.0931 17.3027 22.0931 17.405C22.0931 17.5072 22.0662 17.5868 22.0122 17.6436C21.9582 17.6975 21.8787 17.7245 21.7736 17.7245H20.8577V18.5084C20.8577 18.7953 20.7213 18.9387 20.4487 18.9387Z" fill="#2C3E50"/>
<path d="M8.63989 10.4102H17.0151" stroke="#2C3E50" stroke-width="0.93331" stroke-linecap="round"/>
<path d="M8.61914 13.4219H16.9944" stroke="#2C3E50" stroke-width="0.93331" stroke-linecap="round"/>
<path d="M8.6189 16.457H11.962" stroke="#2C3E50" stroke-width="0.93331" stroke-linecap="round"/>
<path d="M15.2871 3.12305V4.58046C15.2871 5.83751 15.2871 6.46603 15.6776 6.85654C16.0681 7.24706 16.6966 7.24706 17.9537 7.24706H19.6151" stroke="#2C3E50" stroke-width="0.93331"/>
<path d="M19.434 13.9103V8.21567C19.434 7.66292 19.434 7.38654 19.3299 7.13875C19.2258 6.89096 19.0283 6.69756 18.6335 6.31076L16.3124 4.03708C15.9286 3.66112 15.7367 3.47314 15.4945 3.37427C15.2523 3.27539 14.9836 3.27539 14.4464 3.27539H9.18784C7.93079 3.27539 7.30227 3.27539 6.91176 3.6659C6.52124 4.05642 6.52124 4.68494 6.52124 5.94199V18.0589C6.52124 19.316 6.52124 19.9445 6.91176 20.335C7.30227 20.7255 7.93079 20.7255 9.18784 20.7255H12.9777H16.4795" stroke="#2C3E50" stroke-width="0.93331" stroke-linecap="round"/>
</svg>
