<svg width="18" height="18" viewBox="0 0 18 18" fill="none" xmlns="http://www.w3.org/2000/svg">
<path d="M9.88831 13.9545C9.78819 13.9545 9.7115 13.9268 9.65825 13.8715C9.60499 13.8161 9.57837 13.7383 9.57837 13.6382V11.983C9.57837 11.8808 9.60499 11.803 9.65825 11.7498C9.71363 11.6965 9.79139 11.6699 9.8915 11.6699H10.6807C10.9385 11.6699 11.1366 11.7359 11.2751 11.868C11.4156 12.0001 11.4859 12.1822 11.4859 12.4144C11.4859 12.6445 11.4156 12.8266 11.2751 12.9608C11.1366 13.0929 10.9385 13.1589 10.6807 13.1589H10.1982V13.6382C10.1982 13.7383 10.1716 13.8161 10.1184 13.8715C10.0672 13.9268 9.99056 13.9545 9.88831 13.9545ZM10.1982 12.6828H10.5689C10.6754 12.6828 10.7564 12.6604 10.8117 12.6157C10.8671 12.571 10.8948 12.5039 10.8948 12.4144C10.8948 12.3228 10.8671 12.2557 10.8117 12.2131C10.7564 12.1684 10.6754 12.146 10.5689 12.146H10.1982V12.6828ZM12.0697 13.9226C11.9674 13.9226 11.8886 13.8949 11.8332 13.8395C11.7778 13.7841 11.7502 13.7042 11.7502 13.5999V11.9926C11.7502 11.8882 11.7778 11.8084 11.8332 11.753C11.8886 11.6976 11.9674 11.6699 12.0697 11.6699H12.6992C13.0932 11.6699 13.3979 11.7679 13.613 11.9639C13.8303 12.1598 13.9389 12.4368 13.9389 12.7946C13.9389 12.9736 13.9112 13.1333 13.8558 13.2739C13.8005 13.4124 13.7195 13.5306 13.613 13.6286C13.5065 13.7245 13.3766 13.798 13.2232 13.8491C13.0698 13.8981 12.8951 13.9226 12.6992 13.9226H12.0697ZM12.37 13.4177H12.6608C12.7694 13.4177 12.8632 13.4049 12.942 13.3794C13.0208 13.3538 13.0868 13.3155 13.1401 13.2643C13.1934 13.2132 13.2317 13.1493 13.2551 13.0726C13.2807 12.9938 13.2935 12.9011 13.2935 12.7946C13.2935 12.5816 13.2413 12.4251 13.1369 12.3249C13.0325 12.2248 12.8738 12.1748 12.6608 12.1748H12.37V13.4177ZM14.5908 13.9545C14.4907 13.9545 14.4129 13.9268 14.3576 13.8715C14.3043 13.8161 14.2777 13.7362 14.2777 13.6318V11.9926C14.2777 11.8882 14.3054 11.8084 14.3608 11.753C14.4161 11.6976 14.495 11.6699 14.5972 11.6699H15.6548C15.7358 11.6699 15.7965 11.6901 15.837 11.7306C15.8774 11.7711 15.8977 11.8297 15.8977 11.9063C15.8977 11.9852 15.8774 12.0448 15.837 12.0853C15.7965 12.1258 15.7358 12.146 15.6548 12.146H14.8976V12.5678H15.5845C15.6634 12.5678 15.723 12.588 15.7635 12.6285C15.804 12.669 15.8242 12.7275 15.8242 12.8042C15.8242 12.8809 15.804 12.9406 15.7635 12.9832C15.723 13.0236 15.6634 13.0439 15.5845 13.0439H14.8976V13.6318C14.8976 13.847 14.7953 13.9545 14.5908 13.9545Z" fill="#2C3E50"/>
<path d="M5.73413 7.80859H12.0157" stroke="#2C3E50" stroke-width="0.7" stroke-linecap="round"/>
<path d="M5.71851 10.0664H12.0001" stroke="#2C3E50" stroke-width="0.7" stroke-linecap="round"/>
<path d="M5.71826 12.3438H8.22567" stroke="#2C3E50" stroke-width="0.7" stroke-linecap="round"/>
<path d="M10.7195 2.3418V3.43489C10.7195 4.37769 10.7195 4.8491 11.0124 5.14199C11.3052 5.43488 11.7767 5.43488 12.7195 5.43488H13.9655" stroke="#2C3E50" stroke-width="0.7"/>
<path d="M13.8298 10.4314V6.16039C13.8298 5.74581 13.8298 5.53853 13.7517 5.35268C13.6736 5.16683 13.5255 5.02178 13.2294 4.73167L11.4885 3.02637C11.2007 2.74439 11.0568 2.60341 10.8751 2.52924C10.6934 2.45508 10.4919 2.45508 10.089 2.45508H6.14502C5.20221 2.45508 4.7308 2.45508 4.43791 2.74798C4.14502 3.04087 4.14502 3.51228 4.14502 4.45508V13.543C4.14502 14.4858 4.14502 14.9572 4.43791 15.2501C4.7308 15.543 5.20221 15.543 6.14502 15.543H8.98742H11.6138" stroke="#2C3E50" stroke-width="0.7" stroke-linecap="round"/>
</svg>
