<svg width="33" height="33" viewBox="0 0 33 33" fill="none" xmlns="http://www.w3.org/2000/svg">
<path d="M18.5693 25.2528C18.3913 25.2528 18.255 25.2036 18.1603 25.1051C18.0656 25.0067 18.0183 24.8684 18.0183 24.6905V21.7481C18.0183 21.5663 18.0656 21.4281 18.1603 21.3334C18.2588 21.2388 18.397 21.1914 18.575 21.1914H19.978C20.4362 21.1914 20.7884 21.3088 21.0345 21.5436C21.2844 21.7784 21.4094 22.1022 21.4094 22.5149C21.4094 22.9239 21.2844 23.2477 21.0345 23.4863C20.7884 23.721 20.4362 23.8384 19.978 23.8384H19.1203V24.6905C19.1203 24.8684 19.0729 25.0067 18.9783 25.1051C18.8874 25.2036 18.7511 25.2528 18.5693 25.2528ZM19.1203 22.9921H19.7792C19.9685 22.9921 20.1124 22.9523 20.2109 22.8728C20.3093 22.7933 20.3586 22.674 20.3586 22.5149C20.3586 22.3521 20.3093 22.2328 20.2109 22.1571C20.1124 22.0776 19.9685 22.0378 19.7792 22.0378H19.1203V22.9921ZM22.4471 25.196C22.2653 25.196 22.1252 25.1468 22.0268 25.0483C21.9283 24.9499 21.8791 24.8079 21.8791 24.6223V21.7651C21.8791 21.5796 21.9283 21.4376 22.0268 21.3391C22.1252 21.2407 22.2653 21.1914 22.4471 21.1914H23.5661C24.2667 21.1914 24.8082 21.3656 25.1907 21.714C25.5769 22.0624 25.77 22.5547 25.77 23.1909C25.77 23.509 25.7208 23.793 25.6224 24.0429C25.5239 24.2891 25.38 24.4992 25.1907 24.6734C25.0013 24.8438 24.7703 24.9745 24.4977 25.0654C24.225 25.1525 23.9145 25.196 23.5661 25.196H22.4471ZM22.981 24.2985H23.4979C23.6911 24.2985 23.8577 24.2758 23.9978 24.2304C24.1379 24.1849 24.2553 24.1168 24.35 24.0259C24.4447 23.935 24.5128 23.8214 24.5545 23.6851C24.5999 23.5449 24.6226 23.3802 24.6226 23.1909C24.6226 22.8122 24.5299 22.5339 24.3443 22.3559C24.1587 22.1779 23.8766 22.0889 23.4979 22.0889H22.981V24.2985ZM26.9289 25.2528C26.7509 25.2528 26.6127 25.2036 26.5142 25.1051C26.4196 25.0067 26.3722 24.8647 26.3722 24.6791V21.7651C26.3722 21.5796 26.4215 21.4376 26.5199 21.3391C26.6184 21.2407 26.7585 21.1914 26.9403 21.1914H28.8204C28.9643 21.1914 29.0722 21.2274 29.1442 21.2994C29.2161 21.3713 29.2521 21.4755 29.2521 21.6118C29.2521 21.7519 29.2161 21.8579 29.1442 21.9299C29.0722 22.0018 28.9643 22.0378 28.8204 22.0378H27.4742V22.7876H28.6954C28.8356 22.7876 28.9416 22.8236 29.0135 22.8955C29.0855 22.9675 29.1215 23.0716 29.1215 23.2079C29.1215 23.3442 29.0855 23.4503 29.0135 23.526C28.9416 23.598 28.8356 23.6339 28.6954 23.6339H27.4742V24.6791C27.4742 25.0616 27.2924 25.2528 26.9289 25.2528Z" fill="#2C3E50"/>
<path d="M11.1843 13.8828H22.351" stroke="#2C3E50" stroke-width="1.24438" stroke-linecap="round"/>
<path d="M11.1567 17.8984H22.3234" stroke="#2C3E50" stroke-width="1.24438" stroke-linecap="round"/>
<path d="M11.1562 21.9453H15.6137" stroke="#2C3E50" stroke-width="1.24438" stroke-linecap="round"/>
<path d="M20.0469 4.16602V6.10918C20.0469 7.78521 20.0469 8.62322 20.5676 9.14389C21.0883 9.66456 21.9263 9.66456 23.6023 9.66456H25.8175" stroke="#2C3E50" stroke-width="1.24438"/>
<path d="M25.576 18.5486V10.956C25.576 10.219 25.576 9.85054 25.4371 9.52016C25.2983 9.18978 25.035 8.93192 24.5086 8.4162L21.4139 5.3847C20.9022 4.88344 20.6463 4.63281 20.3234 4.50097C20.0004 4.36914 19.6422 4.36914 18.9259 4.36914H11.9147C10.2387 4.36914 9.40071 4.36914 8.88004 4.88981C8.35937 5.41048 8.35938 6.2485 8.35938 7.92452V24.0801C8.35938 25.7561 8.35937 26.5941 8.88004 27.1148C9.40071 27.6355 10.2387 27.6355 11.9147 27.6355H16.9677H21.6367" stroke="#2C3E50" stroke-width="1.24438" stroke-linecap="round"/>
</svg>
